<?xml version="1.0" standalone="no"?>
<!DOCTYPE svg PUBLIC "-//W3C//DTD SVG 1.1//EN" "http://www.w3.org/Graphics/SVG/1.1/DTD/svg11.dtd" >
<svg xmlns="http://www.w3.org/2000/svg">
<metadata>
This is a custom SVG webfont generated by Font Squirrel.
Copyright   : Copyright c 2002 2005 Parachute wwwparachutegr  All rights reserved
Designer    : Panos Vassiliou
Foundry     : Parachute Worldwide
Foundry URL : httpwwwparachutegr
</metadata>
<defs>
<font id="PFDinTextCondProItalic" horiz-adv-x="901" >
<font-face units-per-em="2048" ascent="1536" descent="-512" />
<missing-glyph horiz-adv-x="430" />
<glyph unicode=" "  horiz-adv-x="430" />
<glyph unicode="&#x09;" horiz-adv-x="430" />
<glyph unicode="&#xa0;" horiz-adv-x="430" />
<glyph unicode="!" horiz-adv-x="481" d="M72 0l37 182h174l-37 -182h-174zM164 362l190 1063h162l-223 -1063h-129z" />
<glyph unicode="&#x22;" horiz-adv-x="573" d="M217 1020l80 405h127l-80 -405h-127zM459 1020l80 405h127l-80 -405h-127z" />
<glyph unicode="#" d="M25 0l159 451h-157l22 112h176l109 309h-158l23 113h176l157 442h117l-157 -442h204l158 442h117l-160 -442h166l-23 -113h-182l-110 -309h165l-22 -112h-184l-158 -451h-117l158 451h-205l-158 -451h-116zM340 563h205l110 309h-204z" />
<glyph unicode="$" d="M31 248l139 74q20 -59 62 -111.5t118 -63.5l51 255l50 255q-113 53 -185.5 125t-72.5 191q0 100 30.5 181t83.5 139.5t128 92t165 39.5l33 164h90q-10 -41 -17.5 -84t-15.5 -84q61 -6 107.5 -28.5t80 -56t54 -73.5t26.5 -83l-69 -37l-68 -37q-8 25 -19 51.5t-30.5 48 t-46.5 36.5t-66 22l-92 -467q61 -29 113.5 -57.5t89.5 -65.5t57.5 -85t20.5 -114q0 -111 -32 -200t-89 -151.5t-138 -97t-179 -38.5l-20 -102l-19 -101h-90l41 207q-127 12 -192.5 85t-98.5 171zM367 991q0 -53 32.5 -90t85.5 -65l41 215l43 215q-47 -8 -85 -35t-64.5 -65 t-39.5 -84t-13 -91zM440 145q111 16 171.5 98.5t60.5 198.5q0 68 -42 109t-95 70l-48 -238z" />
<glyph unicode="%" horiz-adv-x="1310" d="M106 -35l1049 1495h127l-1051 -1495h-125zM115 805l78 407q20 100 84.5 160t162.5 60q51 0 95.5 -17.5t73 -50.5t40.5 -77q7 -24 7 -51q0 -22 -5 -46l-76 -408q-20 -102 -77.5 -160.5t-167.5 -58.5q-47 0 -91 16.5t-76 47t-46 75.5q-8 24 -8 53q0 24 6 50zM244 795 q-3 -15 -3 -29q0 -30 15 -52q23 -34 80 -34q53 0 77.5 30.5t32.5 71.5l80 420q3 12 3 23q0 30 -20 54q-28 34 -77 34q-47 0 -74.5 -29t-35.5 -72zM735 231l78 408q20 100 85 159.5t163 59.5q51 0 95 -17.5t72.5 -50t41.5 -76.5q7 -24 6 -51q0 -22 -4 -47l-76 -407 q-20 -102 -77.5 -160.5t-168.5 -58.5q-47 0 -91 16.5t-75.5 47t-46.5 75.5q-8 24 -7 52q-1 24 5 50zM864 221q-3 -15 -3 -28q0 -30 16 -53q23 -34 79 -34q53 0 78 31t33 72l80 420q3 12 3 22q0 30 -21 55q-28 34 -76 33q-47 0 -75 -28.5t-36 -71.5z" />
<glyph unicode="&#x26;" horiz-adv-x="1028" d="M66 289q0 145 82.5 265t232.5 218q-18 61 -49 142t-31 184q0 70 24.5 132t70.5 108t110.5 73t144.5 27q90 0 162 -36t111 -116l-131 -82q-23 51 -63 70.5t-95 19.5q-43 0 -75 -17t-53.5 -45t-31.5 -62.5t-10 -69.5q0 -90 47 -215q18 -49 46 -113l57 -129l58 -128 q28 -62 46 -112q35 51 55 107l39 108l145 -6q-23 -84 -66.5 -182t-103.5 -182l115 -248h-182l-57 123q-86 -78 -159 -106.5t-159 -28.5q-127 0 -203.5 82t-76.5 219zM225 301q0 -72 37 -120t115 -48q59 0 124.5 34t108.5 79l-170 393q-113 -82 -164 -166t-51 -172z" />
<glyph unicode="'" horiz-adv-x="423" d="M262 1020l78 405h127l-78 -405h-127z" />
<glyph unicode="(" horiz-adv-x="505" d="M104 393q0 156 41 308.5t112 293t162 264t193 224.5l76 -47q-94 -113 -172 -242t-134 -267.5t-87 -284.5t-31 -294q0 -141 27.5 -276t81.5 -252l-88 -56q-82 135 -131.5 294t-49.5 335z" />
<glyph unicode=")" horiz-adv-x="505" d="M-80 -180q90 106 168 235t134.5 269.5t88 288t31.5 292.5q0 139 -28.5 275.5t-82.5 253.5l47 24l48 23q80 -133 128 -288t48 -331q0 -158 -41 -311.5t-111.5 -294.5t-164 -266t-197.5 -226z" />
<glyph unicode="*" horiz-adv-x="729" d="M195 1151l12 26q8 17 18 36l20 37q9 17 13 28l201 -92q2 14 6 49t9 73t8 71.5t5 50.5h131l-67 -244q14 6 48 18l70 27l68 27q33 13 49 20q0 -10 3.5 -27.5t6.5 -37t6 -37t3 -25.5l-242 -59l121 -187q-8 -6 -26 -17l-35 -23l-36 -22q-17 -11 -26 -18l-86 209l-34 -42 l-49 -62l-49 -63q-24 -30 -34 -44q-6 6 -19 18l-28 23l-27.5 22.5t-19.5 16.5l195 189l-44 12l-64 17l-64 18q-31 8 -43 12z" />
<glyph unicode="+" d="M61 539l25 127h348l72 362h125l-70 -362h348l-24 -127h-348l-72 -365h-125l70 365h-349z" />
<glyph unicode="," horiz-adv-x="456" d="M-12 -238l102 230h-51l41 213h194l-41 -209l-149 -234h-96z" />
<glyph unicode="-" horiz-adv-x="755" d="M117 494l28 145h562l-29 -145h-561z" />
<glyph unicode="." horiz-adv-x="446" d="M43 0l39 207h194l-38 -207h-195z" />
<glyph unicode="/" horiz-adv-x="587" d="M-117 -86l750 1571h129l-754 -1571h-125z" />
<glyph unicode="0" d="M69 210q-8 35 -9 75q0 42 10 90l139 723q33 164 130 252t249 88q68 0 129 -23.5t104 -70t63 -113.5q11 -37 10 -80q0 -36 -7 -76l-142 -749q-29 -152 -116.5 -245t-257.5 -93q-74 0 -137.5 25.5t-105.5 74.5t-59 122zM233 367q-7 -36 -6 -67q0 -61 27 -97q41 -55 127 -56 q45 0 80 16.5t58.5 42t37.5 57.5t21 63l147 753q4 22 4 43q0 57 -34 99q-46 57 -126 57t-130 -47t-66 -133z" />
<glyph unicode="1" d="M309 0l244 1251l-223 -149l35 176l219 147h166l-277 -1425h-164z" />
<glyph unicode="2" d="M-8 0l28 156l603 716q53 68 81.5 134.5t28.5 121.5q0 61 -38 105.5t-120 44.5q-72 0 -132 -56.5t-83 -160.5l-163 31q39 162 144 253t257 91q133 0 219 -72t86 -215q2 -106 -44 -191.5t-109 -162.5l-531 -637h483l-30 -158h-680z" />
<glyph unicode="3" d="M-8 260v29l168 24v-22q0 -72 36.5 -112t108.5 -40t120 31t77.5 80t42 110.5t12.5 122.5q0 80 -39 132.5t-137 52.5h-68l29 145h76q57 0 103 25.5t79 68.5t49.5 99.5t16.5 119.5q0 59 -34 106.5t-112 47.5q-66 0 -125 -44t-82 -144l-159 28q18 80 54 139.5t87 98.5 t113.5 58.5t130.5 19.5q147 0 222 -77t75 -190q0 -55 -9.5 -115.5t-35 -118.5t-69.5 -109.5t-114 -88.5q68 -35 91.5 -98.5t23.5 -116.5q0 -76 -16.5 -169t-63.5 -175t-131 -137t-219 -55q-59 0 -114.5 15t-96.5 48t-65.5 85t-24.5 126z" />
<glyph unicode="4" d="M23 221l30 156l592 1048h170l-592 -1052h340l78 407h162l-78 -407h106l-28 -152h-109l-43 -221h-159l40 221h-509z" />
<glyph unicode="5" d="M57 289l168 24q0 -84 31 -129t123 -45q90 0 138 58.5t71 150.5q16 66 33.5 145.5t17.5 145.5q0 68 -30.5 108.5t-112.5 40.5q-51 0 -99.5 -27.5t-83.5 -74.5h-153l143 739h649l-30 -155h-498l-80 -412h4q53 43 109.5 60.5t111.5 17.5q63 0 109.5 -19.5t74 -53.5t41 -80 t13.5 -99q0 -61 -8 -121.5t-19 -120.5q-45 -272 -172 -381q-88 -76 -250 -75q-68 0 -124 18.5t-96 55t-62 94.5q-19 49 -19 111q-1 12 0 24z" />
<glyph unicode="6" d="M74 276q0 43 7 97.5t22.5 113t39 115.5t54.5 107l465 716h174l-242 -386l-158 -242l4 -4q29 16 67 25t68 9q61 0 103.5 -20.5t69 -56t39 -82.5t12.5 -99q0 -18 -3 -52t-10.5 -77t-19.5 -92t-29 -96q-92 -264 -366 -264q-76 0 -131.5 22.5t-92 61.5t-55 91t-18.5 113z M246 307q0 -33 6 -63.5t22.5 -53t43 -37t69.5 -14.5q72 0 118 37t68 96q29 82 42.5 154t13.5 106q0 63 -33 105.5t-111 42.5q-76 0 -123 -43t-69 -100q-20 -49 -33.5 -112t-13.5 -118z" />
<glyph unicode="7" d="M66 0l669 1270h-358l-37 -193h-154l68 348h684l-29 -153l-673 -1272h-170z" />
<glyph unicode="8" d="M53 285q0 27 6.5 91t30 137t69.5 137.5t126 92.5q-45 33 -70 84.5t-25 110.5q0 41 9.5 93t36.5 136q41 131 137 201t231 70q141 0 218 -83t77 -212q-2 -39 -12 -99.5t-35 -122t-66 -111.5t-102 -69q31 -16 51.5 -41.5t32.5 -56.5t17.5 -61.5t5.5 -55t-3.5 -59.5 t-11.5 -76t-19.5 -83t-27.5 -81q-43 -104 -129 -171.5t-229 -67.5q-63 0 -120.5 18.5t-102 56t-70 93t-25.5 129.5zM217 326q0 -27 5 -60t21.5 -60.5t48.5 -47t85 -19.5q37 0 64.5 10.5t49 25.5t37 32.5t25.5 34.5q16 27 29.5 60.5t21.5 67t13.5 64.5t7.5 51q0 78 -35 132.5 t-121 54.5q-74 0 -123 -39t-77.5 -94.5t-40 -114.5t-11.5 -98zM356 942q0 -59 42 -94t102 -35q86 0 138 55.5t75 132.5q10 31 15 64t5 65q0 68 -41 111t-112 43q-53 0 -89 -20.5t-61 -53.5q-18 -25 -28 -52l-19 -58q-12 -41 -19.5 -83t-7.5 -75z" />
<glyph unicode="9" d="M109 0l133 214l107 172l87 136l72 107l-4 4q-29 -16 -67 -25.5t-68 -9.5q-61 0 -103.5 20.5t-69 56.5t-39 82t-12.5 99q0 18 3.5 52t10.5 77t19 92t29 97q92 264 366 264q76 0 131.5 -22.5t92.5 -61.5t55 -91.5t18 -113.5q0 -43 -8 -97.5t-23.5 -112.5t-38 -115.5 t-52.5 -106.5l-465 -717h-174zM315 893q0 -63 33 -105.5t111 -42.5q76 0 123 43t69 101q20 49 33.5 111.5t13.5 117.5q0 33 -6 63.5t-22.5 53t-43 37t-69.5 14.5q-72 0 -118 -37t-68 -96q-29 -82 -42.5 -153.5t-13.5 -106.5z" />
<glyph unicode=":" horiz-adv-x="442" d="M37 0l39 207h194l-39 -207h-194zM154 598l39 209h194l-39 -209h-194z" />
<glyph unicode=";" horiz-adv-x="442" d="M-14 -238l102 230h-49l41 213h194l-41 -209l-149 -234h-98zM156 598l41 209h194l-41 -209h-194z" />
<glyph unicode="&#x3c;" d="M80 545l22 117l859 395l-25 -148l-698 -313l577 -313l-31 -131z" />
<glyph unicode="=" d="M27 360l26 134h824l-27 -134h-823zM96 715l25 133h823l-24 -133h-824z" />
<glyph unicode="&#x3e;" d="M4 152l29 147l696 311l-575 314l26 133l707 -395l-23 -117z" />
<glyph unicode="?" horiz-adv-x="888" d="M197 1083q47 184 147 268.5t270 84.5q147 0 240.5 -82t93.5 -226q0 -66 -11 -113.5t-32.5 -87.5t-52.5 -76l-68 -77q-29 -33 -61 -65l-64 -67q-31 -34 -54 -70.5t-36 -79.5l-24 -123h-170q16 98 42.5 181t100.5 157q51 61 97.5 109t81 91t55 86t20.5 97q0 78 -40 131 t-136 53q-102 0 -160.5 -66.5t-68.5 -158.5q-43 10 -85 18zM301 0l37 182h172l-37 -182h-172z" />
<glyph unicode="@" horiz-adv-x="1617" d="M152 514q0 199 61 369t173 293.5t267.5 194.5t341.5 71q137 0 246 -41t184.5 -114t115.5 -174t40 -222q0 -170 -40 -289t-103.5 -194.5t-139 -109.5t-149.5 -34q-23 0 -52.5 5t-58 18.5t-50 35t-27.5 54.5h-7q-35 -43 -92 -73t-123 -30q-86 0 -149.5 52.5t-63.5 156.5 q0 57 8.5 130t26.5 153q35 143 108.5 231t209.5 88q41 0 88 -20.5t77 -63.5l3 3q4 18 7 36.5t7 36.5h135l-111 -575q-4 -16 -3 -31q0 -28 13 -49q19 -33 64 -33q49 0 100.5 27.5t93.5 87t68.5 155t26.5 228.5q0 104 -36 185t-97.5 137.5t-144.5 85t-177 28.5 q-166 0 -297 -63.5t-221 -172t-138 -251t-48 -299.5q0 -229 119.5 -364.5t367.5 -135.5q98 0 191.5 21.5t201.5 70.5l19.5 -58.5l19.5 -58.5q-104 -41 -215.5 -66.5t-224.5 -25.5q-143 0 -257 39t-193.5 115t-122.5 186.5t-43 253.5zM668 541q0 -57 23.5 -95t94.5 -38 q61 0 103.5 45t68 111.5t36 140t10.5 129t-28 88t-87 32.5q-41 0 -78 -16t-63 -59q-66 -109 -80 -338z" />
<glyph unicode="A" horiz-adv-x="1005" d="M-66 0l687 1425h153l133 -1425h-170l-22 324h-453l-149 -324h-179zM330 477h375l-29 369l-23 325h-6l-141 -321z" />
<glyph unicode="B" horiz-adv-x="1024" d="M47 0l279 1425h381q160 0 248.5 -72.5t88.5 -226.5q0 -158 -65.5 -252t-187.5 -133q0 -2 -1.5 -3t-1.5 -3q86 -29 122 -100.5t36 -169.5q-8 -133 -52 -222t-114.5 -143.5t-163 -77t-196.5 -22.5h-373zM246 156h254q68 0 121 27.5t87.5 72.5t53 104.5t18.5 122.5 q0 88 -53 135.5t-149 47.5h-232l-49 -255zM375 813h164q68 0 129 14.5t108 48t75 89t28 135.5q0 88 -57.5 130t-149.5 42h-207z" />
<glyph unicode="C" horiz-adv-x="960" d="M94 328q0 39 10.5 109.5t22.5 135.5q16 86 34.5 174.5l35.5 174.5q18 96 48.5 188t85 165t138.5 117t209 44q176 0 264 -86t96 -228l-172 -51q0 92 -49 147.5t-141 55.5q-68 0 -114 -19.5t-77.5 -52.5t-52 -74t-35.5 -84q-35 -117 -56.5 -242.5t-45.5 -248.5 q-10 -49 -19.5 -102.5t-9.5 -98.5t9.5 -82t32 -64.5t59 -43t94.5 -15.5q96 0 167.5 54.5t106.5 158.5l164 -63q-53 -150 -165.5 -229.5t-278.5 -79.5q-184 0 -272.5 95t-88.5 245z" />
<glyph unicode="D" horiz-adv-x="1054" d="M47 0l277 1425h374q166 0 265.5 -75.5t99.5 -237.5q0 -63 -14.5 -174t-36.5 -233q-12 -74 -27.5 -148t-32 -138.5t-33 -114.5t-30.5 -79q-76 -135 -180.5 -180t-233.5 -45h-428zM246 156h211q86 0 143 21.5t96 61.5t60.5 97t36.5 129l67 350q6 31 12.5 68t11.5 70l9 63 q4 29 4 43q1 10 1 20q0 82 -46 132q-51 56 -178 57h-211l-108 -556z" />
<glyph unicode="E" horiz-adv-x="919" d="M49 0l277 1425h747l-33 -157h-577l-90 -469h495l-28 -154h-496l-96 -487h577l-28 -158h-748z" />
<glyph unicode="F" d="M49 0l277 1425h747l-33 -157h-577l-90 -475h495l-30 -154h-496l-123 -639h-170z" />
<glyph unicode="G" horiz-adv-x="1024" d="M78 328q0 39 10 109.5t23 135.5l34 175l35 174q18 96 49 188t85.5 165t138.5 117t209 44q176 0 264 -86t96 -228l-172 -51q0 92 -49 147.5t-142 55.5q-68 0 -113.5 -19.5t-77.5 -52.5t-52.5 -74t-34.5 -84q-35 -117 -56.5 -242.5t-45.5 -248.5q-10 -49 -19.5 -102.5 t-9.5 -98.5t9 -83t31.5 -65.5t62.5 -43t100 -15.5q82 0 137 32t91 83t56.5 116.5t32.5 133.5l21 104h-230l29 152h403l-55 -277q-23 -106 -57.5 -198t-92 -160t-142.5 -105.5t-208 -37.5q-184 0 -272 95t-88 245z" />
<glyph unicode="H" horiz-adv-x="1075" d="M49 0l277 1425h170l-123 -626h475l123 626h168l-277 -1425h-168l125 649h-475l-125 -649h-170z" />
<glyph unicode="I" horiz-adv-x="438" d="M51 0l279 1425h170l-277 -1425h-172z" />
<glyph unicode="J" horiz-adv-x="821" d="M-43 133l131 98q25 -39 70 -63.5t92 -24.5q94 0 161.5 51.5t96.5 186.5l203 1044h170l-205 -1052q-23 -109 -60.5 -182.5t-93 -118.5t-125 -64.5t-151.5 -19.5q-98 0 -173 37.5t-116 107.5z" />
<glyph unicode="K" horiz-adv-x="1044" d="M47 0l279 1425h168l-138 -720h4l252 299l363 421h192l-473 -565l250 -860h-178l-100 354l-101 355l-270 -308l-78 -401h-170z" />
<glyph unicode="L" horiz-adv-x="892" d="M49 0l277 1425h170l-248 -1267h561l-29 -158h-731z" />
<glyph unicode="M" horiz-adv-x="1329" d="M49 0l277 1425h168l122 -551l72 -329h6l201 334l336 546h174l-279 -1425h-168l193 993h-8l-164 -274l-281 -440h-114l-109 448l-57 266h-6l-193 -993h-170z" />
<glyph unicode="N" horiz-adv-x="1136" d="M45 0l279 1425h163l248 -757l94 -291h7l202 1048h168l-276 -1425h-162l-254 774l-90 285h-6l-203 -1059h-170z" />
<glyph unicode="O" horiz-adv-x="1017" d="M96 273q-5 36 -5 73q0 49 9 100l111 566q14 72 44 147.5t84 137t135 100.5t196 39q111 0 186.5 -39t119.5 -100.5t58 -138.5q7 -38 7 -77t-7 -77l-104 -588q-39 -207 -153.5 -317.5t-301.5 -110.5q-117 0 -196.5 37.5t-125 101t-57.5 146.5zM262 332q4 -53 26.5 -95 t68.5 -67t120 -25q109 0 181.5 68t95.5 186l116 605q4 22 4 49q0 14 -1 29q-3 46 -25.5 89t-70.5 73t-132 30q-70 0 -117 -27.5t-78.5 -67.5t-48 -87.5t-24.5 -85.5l-107 -564q-9 -43 -9 -83q0 -14 1 -27z" />
<glyph unicode="P" horiz-adv-x="978" d="M49 0l277 1425h393q164 0 255 -79.5t91 -233.5q0 -115 -30.5 -213t-92 -171t-153 -114t-209.5 -41h-250l-111 -573h-170zM360 733h228q76 0 133 26.5t95 73t56.5 107.5t18.5 133q0 92 -52.5 143.5t-158.5 51.5h-217z" />
<glyph unicode="Q" horiz-adv-x="1024" d="M90 340q0 53 9.5 118.5t22.5 136.5t28.5 142.5t27.5 134.5q25 121 58.5 224.5t89 178.5t137.5 118t205 43q90 0 159.5 -27t116.5 -74t70.5 -112.5t23.5 -145.5q0 -53 -9 -116.5t-21.5 -131t-27.5 -137l-28 -133.5q-14 -61 -25.5 -119.5t-29.5 -115.5q-25 -80 -61 -142 l110 -106l-108 -111l-107 101q-53 -39 -120.5 -58.5t-157.5 -19.5q-98 0 -167 26.5t-112 74.5t-63.5 112.5t-20.5 138.5zM256 373q0 -49 8 -91t31.5 -73t63.5 -48.5t104 -17.5q45 0 86 10.5t63 26.5l-145 142l113 108l131 -127q25 51 41 110.5t28 118.5q12 63 27.5 132 t29 136.5t22.5 131t9 117.5q0 98 -50 163.5t-171 65.5q-96 0 -150.5 -48t-82.5 -116q-18 -47 -38 -113.5t-37 -142.5l-32.5 -151.5t-27 -143t-17.5 -117.5t-6 -73z" />
<glyph unicode="R" horiz-adv-x="1024" d="M49 0l277 1425h424q160 0 242 -90q74 -80 74 -217q0 -17 -1 -35q-10 -174 -91 -279.5t-229 -152.5l148 -651h-184l-134 627h-235l-121 -627h-170zM369 776h245q119 0 197 81t84 214q1 13 1 26q0 81 -47 125q-54 50 -161 50h-223z" />
<glyph unicode="S" horiz-adv-x="966" d="M35 246l160 80q29 -72 87 -123t169 -51q74 0 126 25.5t85.5 66.5t50 91t16.5 101q0 47 -13.5 80t-39 55.5t-63.5 40t-87 33.5q-90 29 -151.5 60.5t-100 71.5t-56 89t-17.5 115q0 104 31.5 189t92 144.5t144.5 91.5t188 32q72 0 130.5 -18.5t102.5 -50.5t73.5 -72 t44.5 -83l-154 -92q-27 72 -86 111t-135 39q-61 0 -108.5 -21.5t-79 -57.5t-48 -84t-16.5 -101q0 -51 20.5 -84t56.5 -56.5t86 -41.5l109 -38q147 -51 206 -129.5t59 -199.5q0 -100 -32 -187.5t-94.5 -151t-153.5 -99t-208 -35.5q-166 0 -264 71.5t-131 188.5z" />
<glyph unicode="T" horiz-adv-x="815" d="M166 1272l31 153h811l-31 -153h-320l-247 -1272h-168l245 1272h-321z" />
<glyph unicode="U" horiz-adv-x="1050" d="M114 271q-2 27 -3 55q0 55 10 112l46 243l51 266l49 258l42 220h168l-43 -220l-51 -266l-52 -270l-44 -233q-10 -49 -10.5 -99t18 -90t58.5 -64.5t108 -24.5q80 0 135 27.5t92 74.5t58.5 109.5t33.5 130.5l181 925h169l-92 -471l-90 -469q-18 -106 -55 -197t-95.5 -158 t-141.5 -104.5t-195 -37.5q-121 0 -193.5 37.5t-109.5 101t-44 144.5z" />
<glyph unicode="V" horiz-adv-x="950" d="M221 1425h172l33 -710l16 -404h11q12 25 36 83l52 125l51 126q25 59 37 84l301 696h186l-649 -1425h-160z" />
<glyph unicode="W" horiz-adv-x="1421" d="M231 0v1425h172l-12 -542l-16 -514h8l180 432l260 624h154l16 -637l13 -423h8l135 401l244 659h180l-555 -1425h-154l-16 643l-12 447h-7l-178 -441l-266 -649h-154z" />
<glyph unicode="X" horiz-adv-x="911" d="M-70 0l502 739l-199 686h177l135 -528l342 528h188l-469 -686l217 -739h-176l-151 578l-377 -578h-189z" />
<glyph unicode="Y" horiz-adv-x="894" d="M209 1425h166l98 -481q8 -29 17.5 -73l17.5 -78l10 -2l148 251l111 193l112 190h182l-510 -829l-117 -596h-163l116 596l-94 415z" />
<glyph unicode="Z" horiz-adv-x="835" d="M-29 0l31 158l766 1114h-526l30 153h707l-29 -147l-766 -1122h547l-29 -156h-731z" />
<glyph unicode="[" horiz-adv-x="477" d="M14 -211l320 1641h307l-23 -109h-161l-277 -1423h162l-20 -109h-308z" />
<glyph unicode="\" horiz-adv-x="540" d="M184 1460h127l105 -1509h-127z" />
<glyph unicode="]" horiz-adv-x="477" d="M-80 -213l19 111h161l277 1423h-162l23 109h305l-320 -1643h-303z" />
<glyph unicode="^" d="M86 680l508 741h115l221 -741h-135l-170 592l-398 -592h-141z" />
<glyph unicode="_" horiz-adv-x="1013" d="M-133 -266l24 125h1012l-24 -125h-1012z" />
<glyph unicode="`" horiz-adv-x="868" d="M442 1477l138 57l147 -369l-88 -39z" />
<glyph unicode="a" horiz-adv-x="915" d="M74 291q0 55 8 117.5t18 115.5q20 102 51 193.5t78 159t115 107.5t160 40q68 0 125 -27.5t88 -81.5q2 0 2 1.5t2 1.5l20 96h160l-196 -1014h-162l18 94q-2 0 -3 1t-3 1q-51 -57 -101.5 -82.5t-134.5 -25.5q-125 0 -185 82t-60 221zM244 326q0 -35 6 -67t22.5 -56.5 t44 -38.5t72.5 -14q72 0 120 48t71 105q18 47 34.5 101.5t27.5 106.5t18.5 101.5t7.5 87.5q0 76 -36 119t-110 43q-49 0 -91 -21.5t-75 -72.5q-25 -37 -46 -104.5t-38 -141.5q-12 -59 -20 -109t-8 -87z" />
<glyph unicode="b" horiz-adv-x="878" d="M18 0l289 1487h162l-113 -580h4q49 53 117 84t141 31q127 0 179.5 -74t52.5 -188q0 -25 -3 -61.5t-9.5 -81t-14.5 -90.5l-16 -89q-18 -86 -48 -167t-76 -143t-112.5 -101t-156.5 -39q-78 0 -128 26.5t-83 81.5q-2 0 -2 -1t-2 -1l-21 -94h-160zM252 289q0 -59 33.5 -101.5 t105.5 -42.5q63 0 106.5 29t72 78t48 113.5t35.5 136.5q12 53 19.5 108.5t7.5 89.5q0 82 -34 122t-116 40q-80 0 -130 -53t-74 -121q-33 -92 -53.5 -197.5t-20.5 -201.5z" />
<glyph unicode="c" horiz-adv-x="780" d="M59 303q0 59 8.5 118.5t18.5 119.5q18 96 52 184t89.5 154.5t133 106.5t182.5 40q109 0 186.5 -55.5t93.5 -159.5l-151 -74q-10 68 -49 100.5t-99 32.5q-63 0 -109 -28.5t-79 -76.5t-54.5 -110.5t-33.5 -128.5q-10 -47 -16.5 -95t-6.5 -91q0 -102 37 -149.5t129 -47.5 q59 0 111.5 35t79.5 94l139 -77q-51 -88 -141.5 -147.5t-214.5 -59.5q-94 0 -153.5 27.5t-93.5 72.5t-46.5 101.5t-12.5 113.5z" />
<glyph unicode="d" horiz-adv-x="876" d="M63 270q0 72 10.5 148t20.5 129q18 100 50 187t80 151.5t115 101.5t153 37q70 0 125 -28.5t90 -80.5h4l112 572h162l-144 -744l-147 -743h-162l9 46l8 48q-2 0 -2 1t-2 1q-51 -51 -108.5 -79.5t-139.5 -28.5q-66 0 -110 20.5t-71.5 57t-40 89t-12.5 115.5zM236 315 q0 -72 29.5 -118.5t117.5 -46.5q39 0 70.5 14t56.5 36.5t42 50.5t28 56q18 49 30.5 102.5t22.5 106.5q10 47 17 92t7 86q0 72 -33.5 119t-111.5 47q-66 0 -109 -29.5t-71.5 -77.5t-45 -109.5t-28.5 -125.5q-10 -55 -16 -107.5t-6 -95.5z" />
<glyph unicode="e" horiz-adv-x="847" d="M68 324q0 106 21.5 230t74.5 228.5t141 174t223 69.5q141 0 221 -66.5t80 -183.5q0 -82 -29.5 -148.5t-91 -114.5t-155.5 -73.5t-223 -25.5q-23 0 -50.5 1t-52.5 3q-6 -43 -6 -86q0 -37 7.5 -72t23.5 -60.5t46 -41t75 -15.5q27 0 57.5 9.5t60 25t55 37t42.5 45.5l135 -74 q-59 -88 -149.5 -143t-217.5 -55q-84 0 -140 27.5t-89 73.5t-46 107.5t-13 127.5zM254 561q23 -2 47.5 -3t46.5 -1q174 0 247 56.5t73 140.5q0 53 -41 86.5t-113 33.5q-106 0 -168.5 -84t-91.5 -229z" />
<glyph unicode="f" horiz-adv-x="528" d="M-158 -268l23 153q20 -4 33.5 -5t33.5 -1q37 0 59.5 11.5t37 29t21.5 39t11 41.5l170 870h-120l28 142h121l37 186q12 59 31.5 113.5t53.5 95.5t87 64.5t133 23.5q18 0 40 -2t44 -6l-11 -77q-7 -48 -13 -77q-33 8 -68 8q-39 0 -63.5 -15t-38 -38.5t-20.5 -52.5l-13 -53 l-35 -170h166l-27 -142h-166l-166 -847q-12 -59 -31.5 -113.5t-53 -95.5t-86 -65.5t-130.5 -24.5q-20 0 -42.5 2t-45.5 6z" />
<glyph unicode="g" horiz-adv-x="892" d="M-8 -242l135 92q23 -51 62.5 -80.5t105.5 -29.5q86 0 135 43t72 108q16 51 29.5 105.5t23.5 109.5h-4q-53 -61 -118.5 -87.5t-131.5 -26.5q-68 0 -113 20.5t-72.5 57t-38.5 87t-11 109.5q0 55 7 122t21.5 138.5t36 142t48 134t63.5 105.5t78.5 69t88 38t89.5 11 q68 0 124 -27.5t87 -80.5q2 0 2 1t2 1l20 94h162l-197 -1014q-16 -84 -40.5 -160t-68.5 -133t-116 -90t-182 -33q-106 0 -189 46t-110 128zM236 334q0 -9 -1 -19q0 -66 26 -110q30 -51 120 -51q80 0 132 53t77 121q27 76 42 157.5t23 157.5l2 51q0 13 -1 26q-1 40 -13 71.5 t-42 52t-81 20.5q-61 0 -103 -24.5t-72 -69.5t-50.5 -108.5t-34.5 -143.5q-18 -102 -24 -184z" />
<glyph unicode="h" horiz-adv-x="909" d="M27 0l286 1489h164l-115 -590h7q59 66 125.5 95.5t134.5 29.5q115 0 181 -74q52 -58 52 -154q0 -27 -4 -57q0 -10 -12 -77l-32 -172l-44 -231l-49 -259h-166l46 231l42 214l31 162q12 65 12 73q3 20 3 38q0 50 -20 89q-28 53 -120 53q-88 0 -151.5 -58.5t-82.5 -154.5 l-127 -647h-161z" />
<glyph unicode="i" horiz-adv-x="399" d="M35 0l196 1014h164l-196 -1014h-164zM279 1260l32 165h164l-33 -165h-163z" />
<glyph unicode="j" horiz-adv-x="423" d="M-186 -408l28 154q6 0 23.5 -1t21.5 1q66 2 96.5 44t45.5 112l217 1112h166l-226 -1149q-10 -55 -32.5 -105.5t-59.5 -87.5t-88 -59.5t-119 -22.5h-38q-27 0 -35 2zM293 1260l33 165h166l-33 -165h-166z" />
<glyph unicode="k" horiz-adv-x="890" d="M31 0l288 1489h162l-188 -959h6l446 484h193l-363 -398l228 -616h-180l-172 498l-207 -230l-51 -268h-162z" />
<glyph unicode="l" horiz-adv-x="458" d="M74 170q0 39 6 76l246 1241h163l-118 -608l-119 -609q-4 -12 -4 -22v-21q0 -37 20.5 -58.5t65.5 -21.5h33l-31 -153h-27q-102 0 -168.5 40t-66.5 136z" />
<glyph unicode="m" horiz-adv-x="1449" d="M41 0l197 1012h163l-22 -109h6q53 59 117.5 88t134.5 29q90 0 143.5 -33t79.5 -92h2q66 61 133.5 95t153.5 34t138 -31.5t77 -82t27 -113.5v-18q0 -54 -11 -107l-133 -672h-164l131 672q6 29 4.5 60.5t-15 57t-41 42t-70.5 16.5q-51 0 -92.5 -18.5t-73 -51.5t-53 -74.5 t-29.5 -91.5l-117 -612h-166l48 246l37 184l27 138q11 58 19 106q2 21 3 41q0 15 -2 29q-3 34 -18.5 59.5t-45 41t-78.5 15.5q-94 0 -150.5 -70.5t-78.5 -185.5q-4 -18 -12.5 -65l-20.5 -108l-26 -129l-25 -129l-22 -107q-9 -47 -13 -66h-162z" />
<glyph unicode="n" d="M20 0l197 1014h164l-23 -113h7q57 66 123.5 94.5t134.5 28.5q57 0 103 -19.5t78 -54.5t46 -85q9 -32 9 -69q0 -21 -3 -44q0 -10 -12.5 -80l-32.5 -175l-46 -236l-50 -261h-166l46 231l42 214l31 162q12 65 12 73q4 25 4 47q0 11 -1 23q-3 33 -19.5 58.5t-48 39.5 t-83.5 14q-88 0 -146 -61.5t-77 -153.5l-127 -647h-162z" />
<glyph unicode="o" horiz-adv-x="878" d="M74 285q0 80 10 153.5t25 139.5q20 96 53 178t76 135q111 133 290 133q80 0 138.5 -24.5t96.5 -66.5t56.5 -98.5t18.5 -119.5q0 -61 -11.5 -133t-23.5 -133q-23 -111 -55.5 -196t-82 -144.5t-120 -90t-168.5 -30.5q-84 0 -141.5 24.5t-93.5 66.5t-52 95.5t-16 110.5z M229 336q-1 -11 0 -21q0 -26 3 -52q5 -36 22.5 -63.5t50.5 -45t86 -17.5q86 0 129 44t72 116q18 45 33.5 99.5t27 109.5t17.5 106.5t6 92.5q0 86 -44 129t-116 43q-86 0 -141 -62q-33 -35 -59.5 -94t-47.5 -135q-16 -59 -25.5 -128t-13.5 -122z" />
<glyph unicode="p" horiz-adv-x="886" d="M-63 -403l137 708l139 709h162l-19 -94q2 0 2 -1.5t2 -1.5q51 51 109.5 80t140.5 29q106 0 170 -65.5t64 -198.5q0 -68 -8.5 -146.5t-20.5 -144.5q-18 -100 -47 -187t-76 -152.5t-116.5 -103.5t-169.5 -38q-61 0 -117 27.5t-90 80.5q-2 0 -2 -1t-2 -1l-48 -250l-49 -249 h-161zM252 311q0 -72 36 -115.5t105 -43.5q49 0 92 19t76 67q29 41 51.5 116.5t38.5 159.5q10 47 14.5 89t6.5 77q0 37 -5.5 70.5t-21.5 59.5t-45 40t-76 14q-78 0 -128 -52t-70 -114q-25 -78 -43.5 -157.5t-26.5 -153.5q-2 -18 -3 -38t-1 -38z" />
<glyph unicode="q" horiz-adv-x="899" d="M82 291q0 66 13.5 158t35.5 186q18 80 50 151.5t78 125t109.5 84t147.5 30.5q68 0 127 -30.5t82 -82.5q2 0 2 1t2 1l19 99h163l-270 -1417h-170l50 255l52 252q-2 0 -2 1t-2 1q-106 -117 -243 -116q-72 0 -119 24.5t-75 65.5t-39 95.5t-11 115.5zM254 317 q0 -72 29.5 -118.5t115.5 -46.5q55 0 96.5 30.5t72 79.5t51 111.5t33 126t17.5 121t5 98.5q0 59 -31 103t-104 44q-59 0 -102.5 -24.5t-73 -70.5t-50 -109.5t-34.5 -143.5q-10 -59 -17.5 -109.5t-7.5 -91.5z" />
<glyph unicode="r" horiz-adv-x="634" d="M37 0l196 1014h166l-28 -137h6q53 86 125 118q67 31 144 31h9q25 -2 47.5 -7t32.5 -13l-65 -181q-20 12 -48 17.5t-49 5.5q-94 0 -161.5 -59.5t-89.5 -176.5l-121 -612h-164z" />
<glyph unicode="s" horiz-adv-x="821" d="M14 201l138 73q25 -61 72.5 -97t129.5 -36q39 0 78 11.5t67.5 34t47 56t18.5 76.5q0 35 -17.5 55.5t-47 35t-68.5 23.5t-84 22q-104 35 -157.5 85t-53.5 146q0 78 29 141.5t78 107.5t116.5 67.5t147.5 23.5q119 0 197.5 -52t107.5 -145l-143 -75q-18 57 -60.5 86.5 t-120.5 29.5q-84 0 -136 -46t-52 -115q0 -49 49 -73t135 -46q55 -14 100.5 -32.5t78 -47.5t51 -70t18.5 -96q0 -86 -29.5 -152.5t-82 -111.5t-124 -68.5t-157.5 -23.5q-123 0 -211 54.5t-115 158.5z" />
<glyph unicode="t" horiz-adv-x="512" d="M100 142q-2 16 -2 33q0 27 6 56l125 646h-112l12 67q6 33 14 68h113l51 262h164l-51 -262h143q-8 -35 -14 -68l-12 -67h-144l-117 -601q-6 -27 -7 -49t7.5 -39.5t27 -26.5t52.5 -9h54l-31 -154h-78q-66 0 -107.5 19.5t-64.5 51t-29 73.5z" />
<glyph unicode="u" horiz-adv-x="909" d="M78 260q0 10 12 80t33 175l46 236l50 263h164l-45 -233l-41 -215l-31 -162q-12 -65 -12 -72q-5 -28 -5 -53q0 -8 1 -17q2 -33 15.5 -58.5t43 -41t82.5 -15.5q43 0 82 20.5t70.5 54.5t53 78t32.5 91l123 623h161l-196 -1014h-164l22 109h-6q-57 -66 -123.5 -93.5 t-132.5 -27.5q-127 0 -189 73q-49 58 -50 149q1 24 4 50z" />
<glyph unicode="v" horiz-adv-x="784" d="M84 1012h168l37 -420q8 -86 13 -175q4 -64 4 -138q0 -30 -1 -62h6q59 92 108.5 184.5t93.5 189.5t84 201l81 220h178q-51 -139 -105.5 -269.5t-115 -254t-130 -244.5t-153.5 -244h-159z" />
<glyph unicode="w" horiz-adv-x="1286" d="M90 1014h170l23 -492q2 -35 3 -67l2 -67q1 -34 1 -73t-2 -84h8q96 174 175 372t155 411h184l27 -434q4 -76 5 -156v-33q0 -68 -3 -151h6q51 92 94 179t83 179t77 194l78 222h170q-47 -145 -97.5 -274.5t-109 -251t-125 -242.5t-142.5 -246h-161l-27 487q-2 53 -4 130 q-1 26 -1 52q0 51 3 101h-10q-39 -119 -76 -217t-78 -187.5t-87 -177.5l-101 -188h-164z" />
<glyph unicode="x" horiz-adv-x="798" d="M-57 0l395 520q-10 20 -25 60l-31 87l-36 100l-36 100l-33 87l-23 60h182l110 -357l52 73l71 107l72 105l51 72h197l-381 -498q14 -31 41 -103l56 -155l57 -155q27 -73 40 -103h-182l-117 371q-18 -23 -55 -75l-77 -111l-76 -110q-37 -52 -56 -75h-196z" />
<glyph unicode="y" horiz-adv-x="768" d="M-133 -268q106 14 191 68.5t147 156.5l-115 1057h170l37 -455q8 -88 13 -202q3 -63 3 -122q0 -47 -2 -92h6q49 90 96.5 198t91.5 221l85 230l76 222h170l-118 -336q-56 -154 -113.5 -290t-117 -258t-129.5 -236q-92 -150 -212 -230q-117 -78 -265 -78h-8z" />
<glyph unicode="z" horiz-adv-x="749" d="M-39 0l29 145l588 721h-420l26 146h607l-27 -142l-582 -714h443l-31 -156h-633z" />
<glyph unicode="{" horiz-adv-x="497" d="M61 569l21 105q41 6 72.5 29.5t56.5 59.5t41 82t27 95l55 279q16 92 76.5 149t150.5 57h107l-21 -108h-53q-33 0 -55.5 -14.5t-37 -37t-22.5 -50t-14 -54.5l-51 -266q-12 -66 -38 -114t-54.5 -80.5t-55 -50t-43.5 -23.5l-2 -6q14 -6 34.5 -23.5t36 -50.5t22.5 -80 q3 -17 3 -37q0 -34 -8 -74l-55 -290q-7 -38 -7 -70q0 -27 5 -49q10 -49 63 -49h56l-21 -109h-86q-92 0 -137 63q-32 44 -32 107q0 26 5 55l56 293q11 57 10 104q0 42 -8 76q-19 72 -97 82z" />
<glyph unicode="|" horiz-adv-x="423" d="M147 -330v1809h132v-1809h-132z" />
<glyph unicode="}" horiz-adv-x="497" d="M-86 -211l20 109h52q59 0 87.5 51t43.5 127l49 260q12 63 37.5 111.5t53.5 81t55.5 50t43.5 23.5l2 6q-16 6 -35.5 23.5t-35 49.5t-21.5 80q-2 16 -2 34q0 36 8 79l52 265q8 39 11 71.5t-2 56t-21.5 37t-47.5 13.5h-57l20 104h95q100 0 138 -62q25 -42 25 -99 q0 -28 -6 -60l-55 -278q-11 -57 -11 -106q0 -41 9 -74q10 -36 32.5 -58t61.5 -27l-20 -104q-80 -10 -127 -86t-68 -178l-57 -293q-16 -92 -75.5 -149.5t-158.5 -57.5h-96z" />
<glyph unicode="~" d="M59 506q57 82 125 126t144 44q49 0 89 -17.5t77.5 -39t74.5 -39t78 -17.5t77 21.5t77 77.5l94 -64q-51 -86 -114.5 -132t-147.5 -46q-41 0 -81 17.5t-81 38t-82 37.5t-84 17q-47 0 -77.5 -24.5t-77.5 -71.5z" />
<glyph unicode="&#xa1;" horiz-adv-x="481" d="M53 -414l223 1063h130l-191 -1063h-162zM287 829l37 183h174l-37 -183h-174z" />
<glyph unicode="&#xa2;" horiz-adv-x="821" d="M59 303q0 59 8.5 118.5t18.5 119.5q16 92 49 177t83 151.5t122 107.5t168 47l41 207h88l-41 -209q90 -14 150.5 -67.5t76.5 -143.5l-151 -74q-8 53 -36 85t-71 42l-139 -719q49 10 91 44t65 83l139 -77q-47 -84 -130 -140.5t-196 -64.5l-43 -230h-88l45 232 q-76 8 -125 37.5t-76.5 72.5t-38 95.5t-10.5 105.5zM225 340q0 -86 25.5 -133t89.5 -60l137 717q-51 -10 -89 -41.5t-65.5 -78t-46 -102.5t-28.5 -116q-10 -47 -16.5 -95t-6.5 -91z" />
<glyph unicode="&#xa3;" d="M-6 0q4 35 11 68.5t13 68.5q90 106 152.5 218t89.5 255h-154l27 133h135q0 72 -12 148t-12 137q0 88 27.5 163t77.5 129t121 85t157 31q152 0 229.5 -74t93.5 -219l-153 -47q-8 39 -19.5 73.5t-31 59t-51 39t-79.5 14.5q-53 0 -90 -22.5t-60.5 -61.5t-34.5 -88t-11 -102 q0 -55 10 -119t10 -123q0 -6 -1 -11t-1 -12h252l-28 -133h-238q-29 -143 -76 -249.5t-123 -206.5h527l-29 -154h-729z" />
<glyph unicode="&#xa4;" horiz-adv-x="1073" d="M92 313l129 125q-70 102 -69 215q0 115 69 217l-129 125l98 101l127 -127q53 35 105.5 52t112 17t112.5 -17t107 -52l123 127q31 -29 50 -50.5t50 -50.5l-127 -125q70 -109 70 -217q0 -57 -17.5 -109t-52.5 -106l127 -123l-50.5 -52t-49.5 -50l-123 127 q-100 -70 -219 -70q-113 0 -218 70l-24 -25l-39 -39l-39 -38l-25 -25l-60 62zM293 657.5q0 -49.5 18.5 -93.5t50 -77.5t75.5 -53t95 -19.5q49 0 94.5 19.5t78 51t52 75.5t19.5 93q0 51 -18.5 96.5t-51 78t-77.5 51t-97 18.5q-49 0 -92 -18.5t-75.5 -51t-52 -76.5 t-19.5 -93.5z" />
<glyph unicode="&#xa5;" d="M66 338l20 106h272l21 109v53h-260q4 27 9 52.5t11 52.5h221l-74 357l-75 357h166l115 -667h2l42 76l63 112l104 186l167 293h170l-428 -714h226q-4 -27 -9.5 -52.5l-11.5 -52.5h-262l-23 -53q-4 -27 -9 -53.5t-11 -55.5h274l-20 -106h-274l-68 -338h-154l68 338h-272z " />
<glyph unicode="&#xa6;" horiz-adv-x="423" d="M147 -332v846h132v-846h-132zM147 612v854h132v-854h-132z" />
<glyph unicode="&#xa7;" horiz-adv-x="911" d="M25 -12l98 102q49 -59 106.5 -81.5t126.5 -22.5q106 0 177 52t71 144q0 59 -50 110.5t-155 104.5q-115 59 -177 116.5t-62 152.5q0 96 45 161.5t127 118.5q-29 37 -44.5 73t-15.5 89q0 78 31 139.5t83 103.5t120.5 64.5t146.5 22.5q100 0 182 -32t136 -91l-105 -111 q-53 55 -108.5 74.5t-110.5 19.5q-90 0 -149.5 -52t-59.5 -124q0 -31 16.5 -55.5t43 -47t61.5 -43t72 -38.5q43 -23 88 -50.5t83 -62t61.5 -80t23.5 -102.5q0 -94 -46 -162.5t-118 -120.5q20 -33 31.5 -71.5t11.5 -81.5q0 -78 -29.5 -143.5t-83 -113.5t-130.5 -76t-169 -28 q-100 0 -191 40.5t-138 101.5zM317 698q0 -45 33 -79.5t80 -62.5t100.5 -52.5t94.5 -48.5q51 23 78.5 70.5t27.5 99.5q0 57 -48 97t-138 81q-25 12 -49 26l-54 31q-49 -18 -87 -65.5t-38 -96.5z" />
<glyph unicode="&#xa8;" horiz-adv-x="864" d="M336 1214l35 172h157l-32 -172h-160zM674 1214l35 172h157l-32 -172h-160z" />
<glyph unicode="&#xa9;" horiz-adv-x="1542" d="M104 698.5q0 153.5 47.5 285.5t134.5 228.5t211 150.5t275 54q150 0 272.5 -54t210.5 -150.5t135.5 -228.5t47.5 -285.5t-47.5 -283.5t-135.5 -226.5t-210.5 -150.5t-272.5 -54q-154 0 -277.5 54t-210.5 150.5t-133.5 226.5t-46.5 283.5zM227 698q0 -127 39 -235.5 t111 -190.5t172 -128t223 -46q125 0 225.5 46t171 128t108.5 190.5t38 235.5t-39 238t-109.5 191.5t-171 128t-223.5 47.5q-127 0 -227.5 -47.5t-171 -128t-108.5 -191.5t-38 -238zM504 524v320q0 121 72.5 199.5t201.5 78.5q104 0 176 -55t88 -156l-116 -39 q-10 59 -49 97.5t-99 38.5q-74 0 -112.5 -50.5t-38.5 -111.5v-324q0 -63 40 -112.5t111 -49.5q119 0 148 138l116 -39q-18 -106 -88.5 -160.5t-175.5 -54.5q-127 0 -200.5 77.5t-73.5 202.5z" />
<glyph unicode="&#xaa;" horiz-adv-x="632" d="M121 750q0 45 6 92t14 88q14 66 36 123t54.5 100t80.5 68.5t114 25.5q41 0 77 -14t58 -45l10 55h131l-133 -672h-129l13 58q-61 -66 -160 -66q-78 0 -125 50.5t-47 136.5zM256 791q0 -47 18.5 -75t71.5 -28q47 0 77 30t42 62q23 55 37 115.5t20 114.5q1 8 1 15 q0 34 -15 64q-18 36 -76 35q-66 0 -102 -55q-16 -27 -32.5 -78t-27.5 -100q-6 -31 -10 -58.5t-4 -41.5z" />
<glyph unicode="&#xab;" horiz-adv-x="915" d="M100 475l310 381h163l-311 -383l160 -379h-158zM442 475l310 381h163l-309 -383l158 -379h-158z" />
<glyph unicode="&#xac;" d="M61 539l25 127h821l-96 -492h-139l69 365h-680z" />
<glyph unicode="&#xad;" horiz-adv-x="755" d="M117 494l28 145h562l-29 -145h-561z" />
<glyph unicode="&#xae;" horiz-adv-x="1071" d="M123 1005.5q0 94.5 28.5 175.5t83 139t130 92t170.5 34q92 0 166.5 -34t129 -92t83 -139t28.5 -175.5t-28.5 -174t-83 -138t-129 -91.5t-166.5 -33q-94 0 -170 33t-130.5 91.5t-83 138t-28.5 174zM207 1008q0 -78 23.5 -144.5t66.5 -115t103.5 -75t134.5 -26.5 q76 0 136 27.5t101 76t63.5 114t22.5 143.5q0 76 -22.5 142.5t-65.5 115.5t-102.5 77.5t-132.5 28.5q-78 0 -138.5 -28.5t-102.5 -77.5t-64.5 -115.5t-22.5 -142.5zM381 741v523h174q68 0 109 -40t41 -114q0 -100 -87 -141l51.5 -113.5l51.5 -114.5h-96l-45 108l-45 107h-68 v-215h-86zM467 1032h72q33 0 56 18.5t23 59.5q0 37 -20 56.5t-51 19.5h-80v-154z" />
<glyph unicode="&#xaf;" horiz-adv-x="876" d="M328 1217l28 145h521l-31 -145h-518z" />
<glyph unicode="&#xb0;" horiz-adv-x="681" d="M104 1196q0 49 18.5 93t51.5 77t77 52.5t93 19.5q53 0 97 -19.5t77 -52.5t50.5 -77t17.5 -93t-19.5 -93t-52.5 -77t-77 -52.5t-93 -19.5t-93 19.5t-77 52.5t-51.5 77t-18.5 93zM205 1196q0 -59 40 -100t99 -41t99 41t40 100t-40 99t-99 40q-57 0 -98 -40t-41 -99z" />
<glyph unicode="&#xb1;" d="M-35 0l25 127h813l-25 -127h-813zM76 569l24 127h344l68 346h125l-66 -346h342l-24 -127h-342l-68 -346h-127l68 346h-344z" />
<glyph unicode="&#xb2;" horiz-adv-x="571" d="M74 760l20 108l377 414q63 72 68 135q2 35 -18.5 59.5t-71.5 24.5q-94 0 -130 -137l-133 25q33 106 101.5 167.5t175.5 61.5q102 0 158.5 -49t50.5 -144q-2 -53 -29 -103t-68 -97l-315 -342h303l-24 -123h-465z" />
<glyph unicode="&#xb3;" horiz-adv-x="575" d="M102 922v26l127 19v-27q0 -80 86 -80q43 0 72 17.5t46.5 45t25.5 61.5t8 69q0 41 -23.5 68.5t-81.5 27.5h-55l8 41l15 65h55q72 0 111 50.5t39 119.5q0 31 -19.5 55.5t-62.5 24.5q-41 0 -77 -25.5t-48 -84.5l-125 18q25 104 97.5 153.5t164.5 49.5q98 0 148.5 -47 t50.5 -119q0 -31 -7.5 -67.5t-24 -70.5t-43 -63.5t-67.5 -48.5q45 -23 57.5 -59.5t12.5 -65.5q0 -45 -11.5 -101t-42 -105.5t-87 -83t-144.5 -33.5q-84 0 -144.5 40t-60.5 130z" />
<glyph unicode="&#xb4;" horiz-adv-x="868" d="M528 1171l213 355l146 -51l-266 -342z" />
<glyph unicode="&#xb5;" horiz-adv-x="919" d="M-43 -401l136 706l138 707h164l-131 -662q-8 -43 -6 -78.5t18.5 -63.5t49 -43t86.5 -15q100 0 154.5 73.5t76.5 179.5l119 609h162l-195 -1012h-164q4 27 9.5 53.5t11.5 52.5h-6q-45 -57 -112 -85.5t-134 -28.5q-35 0 -66.5 9t-58.5 30q-2 0 -2 -1t-2 -1l-86 -430h-162z " />
<glyph unicode="&#x3bc;" horiz-adv-x="919" d="M-43 -401l136 706l138 707h164l-131 -662q-8 -43 -6 -78.5t18.5 -63.5t49 -43t86.5 -15q100 0 154.5 73.5t76.5 179.5l119 609h162l-195 -1012h-164q4 27 9.5 53.5t11.5 52.5h-6q-45 -57 -112 -85.5t-134 -28.5q-35 0 -66.5 9t-58.5 30q-2 0 -2 -1t-2 -1l-86 -430h-162z " />
<glyph unicode="&#xb6;" horiz-adv-x="985" d="M166 934q0 84 26.5 174t78 165t126 123t170.5 48h541l-29 -150h-90l-284 -1462h-146l285 1462h-152l-282 -1462h-148l160 832h-51q-53 0 -91 21.5t-64 58t-38 86t-12 104.5z" />
<glyph unicode="&#xb7;" horiz-adv-x="442" d="M154 442l39 207h194l-39 -207h-194z" />
<glyph unicode="&#xb8;" horiz-adv-x="882" d="M86 -393l41 86q35 -18 70.5 -23.5t62.5 -5.5q41 0 74 21.5t33 62.5q0 76 -95 76h-20l-31 31l101 208l81 -4l-71 -155q45 -4 75.5 -17.5t48 -33t24.5 -42t7 -44.5q0 -31 -12 -65t-39.5 -61.5t-70.5 -46t-103 -18.5h-30q-19 0 -44.5 3t-52 9.5t-49.5 18.5z" />
<glyph unicode="&#xb9;" horiz-adv-x="493" d="M227 1389l29 135l145 90h125l-166 -854h-129l140 717l-30 -19l-42 -26l-43 -27q-21 -12 -29 -16z" />
<glyph unicode="&#xba;" horiz-adv-x="606" d="M117 766q0 53 7 100t17 88q16 63 38 117.5t50 89.5q33 41 82 64.5t115 23.5q115 0 172 -60.5t57 -146.5q0 -41 -7 -88t-17 -86q-31 -141 -97.5 -222t-201.5 -81q-59 0 -100.5 16.5t-67 44t-36.5 64.5t-11 76zM242 788q0 -20 3 -38.5t14 -34t30.5 -24.5t52.5 -9 q47 0 78 26.5t47 69.5q23 59 41 133t18 125q0 49 -29.5 74t-72.5 25q-47 0 -86 -35q-23 -23 -38 -57.5t-28 -75.5q-12 -45 -21 -95.5t-9 -83.5z" />
<glyph unicode="&#xbb;" horiz-adv-x="915" d="M27 94l315 385l-166 377h158l168 -381l-316 -381h-159zM369 94l313 385l-164 377h158l168 -381l-316 -381h-159z" />
<glyph unicode="&#xbc;" horiz-adv-x="1310" d="M55 -35l1049 1495h127l-1051 -1495h-125zM244 1200l28 135l146 90h125l-166 -854h-129l139 717l-30 -18l-42 -27l-43 -26q-20 -13 -28 -17zM610 125l25 111l371 616h139l-371 -610h189l45 235h129l-45 -235h71l-22 -117h-72q-2 -6 -5 -24.5t-7 -38.5l-8 -37 q-4 -18 -5 -27h-126l24 127h-332z" />
<glyph unicode="&#xbd;" horiz-adv-x="1310" d="M35 -35l1048 1495h127l-1050 -1495h-125zM231 1200l29 135l146 90h124l-165 -854h-129l139 717l-30 -18l-42 -27l-43 -26q-21 -13 -29 -17zM651 -2l21 108l377 414q63 72 67 135q2 35 -18.5 59.5t-71.5 24.5q-94 0 -129 -137l-133 25q33 106 101.5 167.5t174.5 61.5 q102 0 159 -49q51 -44 51 -125q0 -9 -1 -18q-2 -53 -28.5 -103.5t-67.5 -97.5l-315 -342h303l-25 -123h-465z" />
<glyph unicode="&#xbe;" horiz-adv-x="1310" d="M88 737v27l127 18v-26q0 -80 86 -80q43 0 71.5 17.5t46 45t26 61.5t8.5 68q0 41 -23.5 69t-81.5 28h-55l8 41l14 65h56q72 0 110.5 50t38.5 120q0 31 -19.5 55.5t-62.5 24.5q-41 0 -76.5 -25.5t-48.5 -85.5l-125 19q25 104 97.5 153.5t165.5 49.5q98 0 148 -47.5 t50 -118.5q0 -31 -7 -68t-23.5 -70.5t-43 -63.5t-67.5 -48q45 -23 57.5 -59.5t12.5 -65.5q0 -45 -11.5 -101.5t-42 -105.5t-87 -83t-144.5 -34q-84 0 -144.5 40t-60.5 130zM121 -35l1048 1495h127l-1050 -1495h-125zM662 125l24 111l371 616h139l-371 -610h189l45 235h129 l-45 -235h71l-22 -117h-72q-2 -6 -5 -24.5t-7 -38.5l-8 -37q-4 -18 -4 -27h-127l24 127h-331z" />
<glyph unicode="&#xbf;" horiz-adv-x="888" d="M72 -113q0 63 13 113.5t35.5 91.5t52.5 78t63 72l64 65q34 33 64.5 69t54 72.5t32.5 75.5l24 123h170q-6 -35 -13 -68.5t-16 -68.5q-10 -55 -42.5 -106.5t-73.5 -99.5t-86 -95t-82 -94t-61.5 -95.5t-24.5 -99.5q0 -70 41 -124t137 -54q51 0 91 18.5t68.5 49t46 71.5 t23.5 86l170 -35q-41 -188 -145.5 -269t-271.5 -81q-147 0 -240.5 82t-93.5 223zM510 834l37 182h172l-37 -182h-172z" />
<glyph unicode="&#xc0;" horiz-adv-x="1005" d="M-66 0l687 1425h153l133 -1425h-170l-22 324h-453l-149 -324h-179zM330 477h375l-29 369l-23 325h-6l-141 -321zM369 1686l82 124l321 -233l-51 -82z" />
<glyph unicode="&#xc1;" horiz-adv-x="1005" d="M-66 0l687 1425h153l133 -1425h-170l-22 324h-453l-149 -324h-179zM330 477h375l-29 369l-23 325h-6l-141 -321zM623 1571l344 239l88 -120l-379 -199z" />
<glyph unicode="&#xc2;" horiz-adv-x="1005" d="M-66 0l687 1425h153l133 -1425h-170l-22 324h-453l-149 -324h-179zM330 477h375l-29 369l-23 325h-6l-141 -321zM358 1569l338 256h103l223 -252l-72 -68l-225 164l-311 -168z" />
<glyph unicode="&#xc3;" horiz-adv-x="1005" d="M-66 0l687 1425h153l133 -1425h-170l-22 324h-453l-149 -324h-179zM330 477h375l-29 369l-23 325h-6l-141 -321zM377 1583q47 80 106.5 123t118.5 43q33 0 64.5 -13.5t62.5 -28.5l59 -29q29 -13 56 -13q29 0 57.5 18.5t65.5 65.5l88 -57q-49 -94 -108.5 -131t-112.5 -37 q-35 0 -67 12t-62 28l-60 28q-29 13 -55 14q-31 0 -56.5 -21.5t-64.5 -62.5z" />
<glyph unicode="&#xc4;" horiz-adv-x="1005" d="M-66 0l687 1425h153l133 -1425h-170l-22 324h-453l-149 -324h-179zM330 477h375l-29 369l-23 325h-6l-141 -321zM465 1532l33 172h159l-32 -172h-160zM807 1532l33 172h159l-32 -172h-160z" />
<glyph unicode="&#xc5;" horiz-adv-x="1005" d="M-66 0l687 1425h153l133 -1425h-170l-22 324h-453l-149 -324h-179zM330 477h375l-29 369l-23 325h-6l-141 -321zM553 1616q0 45 18.5 86t50 72.5t73.5 50t91 18.5q72 0 117 -45t45 -112q0 -49 -20.5 -91.5t-53 -73t-74.5 -47t-85 -16.5q-72 0 -117 45t-45 113zM643 1630 q0 -39 23.5 -62.5t62.5 -23.5q49 0 88 37t39 90q0 35 -24.5 59.5t-63.5 24.5q-49 0 -87 -38t-38 -87z" />
<glyph unicode="&#xc6;" horiz-adv-x="1640" d="M-37 0l451 713l450 712h850l-22 -159h-584l-68 -467h502l-20 -154h-502l-68 -481h586l-22 -164h-758l55 395h-424l-250 -395h-176zM487 549h347l106 719h-4z" />
<glyph unicode="&#xc7;" horiz-adv-x="960" d="M94 328q0 39 10.5 109.5t22.5 135.5q16 86 34.5 174.5l35.5 174.5q18 96 48.5 188t85 165t138.5 117t209 44q176 0 264 -86t96 -228l-172 -51q0 92 -49 147.5t-141 55.5q-68 0 -114 -19.5t-77.5 -52.5t-52 -74t-35.5 -84q-35 -117 -56.5 -242.5t-45.5 -248.5 q-10 -49 -19.5 -102.5t-9.5 -98.5t9.5 -82t32 -64.5t59 -43t94.5 -15.5q96 0 167.5 54.5t106.5 158.5l164 -63q-53 -147 -160.5 -226t-265.5 -83l-39 -84q45 -4 76 -17.5t48 -33t24.5 -42t7.5 -44.5q0 -31 -12.5 -65t-40 -61.5t-70.5 -46t-102 -18.5h-30q-19 0 -45 3 t-52.5 9t-49.5 19l41 86q35 -18 71 -23.5t62 -5.5q41 0 74 21.5t33 62.5q0 76 -94 76h-21l-30 31l65 137q-152 16 -223.5 108.5t-71.5 227.5z" />
<glyph unicode="&#xc8;" horiz-adv-x="919" d="M49 0l277 1425h747l-33 -157h-577l-90 -469h495l-28 -154h-496l-96 -487h577l-28 -158h-748zM395 1686l82 124l322 -233l-51 -82z" />
<glyph unicode="&#xc9;" horiz-adv-x="919" d="M49 0l277 1425h747l-33 -157h-577l-90 -469h495l-28 -154h-496l-96 -487h577l-28 -158h-748zM602 1571l344 239l88 -120l-379 -199z" />
<glyph unicode="&#xca;" horiz-adv-x="919" d="M49 0l277 1425h747l-33 -157h-577l-90 -469h495l-28 -154h-496l-96 -487h577l-28 -158h-748zM375 1569l338 256h102l223 -252l-71 -68l-226 164l-311 -168z" />
<glyph unicode="&#xcb;" horiz-adv-x="919" d="M49 0l277 1425h747l-33 -157h-577l-90 -469h495l-28 -154h-496l-96 -487h577l-28 -158h-748zM451 1532l32 172h160l-33 -172h-159zM793 1532l32 172h160l-33 -172h-159z" />
<glyph unicode="&#xcc;" horiz-adv-x="438" d="M51 0l279 1425h170l-277 -1425h-172zM92 1686l82 124l322 -233l-52 -82z" />
<glyph unicode="&#xcd;" horiz-adv-x="438" d="M51 0l279 1425h170l-277 -1425h-172zM379 1571l344 239l88 -120l-379 -199z" />
<glyph unicode="&#xce;" horiz-adv-x="438" d="M51 0l279 1425h170l-277 -1425h-172zM94 1569l338 256h103l223 -252l-72 -68l-225 164l-311 -168z" />
<glyph unicode="&#xcf;" horiz-adv-x="438" d="M51 0l279 1425h170l-277 -1425h-172zM186 1550l33 172h158l-33 -172h-158zM524 1550l33 172h158l-33 -172h-158z" />
<glyph unicode="&#xd0;" horiz-adv-x="1054" d="M47 0l131 674h-131l25 127h131l121 624h374q166 0 265.5 -75.5t99.5 -237.5q0 -63 -14.5 -174t-36.5 -233q-12 -74 -27.5 -148t-32 -138.5t-33 -114.5t-30.5 -79q-76 -135 -180.5 -180t-233.5 -45h-428zM246 156h211q86 0 143 21.5t96 61.5t60.5 97t36.5 129l67 350 q6 31 12.5 68t11.5 70l9 63q4 29 4 43q1 10 1 20q0 82 -46 132q-51 56 -178 57h-211l-90 -467h168l-27 -127h-166z" />
<glyph unicode="&#xd1;" horiz-adv-x="1136" d="M45 0l279 1425h163l248 -757l94 -291h7l202 1048h168l-276 -1425h-162l-254 774l-90 285h-6l-203 -1059h-170zM455 1573q47 80 106.5 123t118.5 43q33 0 64.5 -13.5t62.5 -28.5l59 -29q29 -13 56 -13q29 0 57.5 18.5t64.5 65.5l89 -58q-49 -94 -108.5 -131t-113.5 -37 q-35 0 -66.5 12.5t-62.5 27.5l-59 29q-29 13 -55 13q-31 0 -56.5 -21.5t-64.5 -62.5z" />
<glyph unicode="&#xd2;" horiz-adv-x="1017" d="M96 273q-5 36 -5 73q0 49 9 100l111 566q14 72 44 147.5t84 137t135 100.5t196 39q111 0 186.5 -39t119.5 -100.5t58 -138.5q7 -38 7 -77t-7 -77l-104 -588q-39 -207 -153.5 -317.5t-301.5 -110.5q-117 0 -196.5 37.5t-125 101t-57.5 146.5zM262 332q4 -53 26.5 -95 t68.5 -67t120 -25q109 0 181.5 68t95.5 186l116 605q4 22 4 49q0 14 -1 29q-3 46 -25.5 89t-70.5 73t-132 30q-70 0 -117 -27.5t-78.5 -67.5t-48 -87.5t-24.5 -85.5l-107 -564q-9 -43 -9 -83q0 -14 1 -27zM471 1686l82 124l321 -233l-51 -82z" />
<glyph unicode="&#xd3;" horiz-adv-x="1017" d="M96 273q-5 36 -5 73q0 49 9 100l111 566q14 72 44 147.5t84 137t135 100.5t196 39q111 0 186.5 -39t119.5 -100.5t58 -138.5q7 -38 7 -77t-7 -77l-104 -588q-39 -207 -153.5 -317.5t-301.5 -110.5q-117 0 -196.5 37.5t-125 101t-57.5 146.5zM262 332q4 -53 26.5 -95 t68.5 -67t120 -25q109 0 181.5 68t95.5 186l116 605q4 22 4 49q0 14 -1 29q-3 46 -25.5 89t-70.5 73t-132 30q-70 0 -117 -27.5t-78.5 -67.5t-48 -87.5t-24.5 -85.5l-107 -564q-9 -43 -9 -83q0 -14 1 -27zM623 1569l172 121l172 120l86 -120l-189 -101l-190 -100z" />
<glyph unicode="&#xd4;" horiz-adv-x="1017" d="M96 273q-5 36 -5 73q0 49 9 100l111 566q14 72 44 147.5t84 137t135 100.5t196 39q111 0 186.5 -39t119.5 -100.5t58 -138.5q7 -38 7 -77t-7 -77l-104 -588q-39 -207 -153.5 -317.5t-301.5 -110.5q-117 0 -196.5 37.5t-125 101t-57.5 146.5zM262 332q4 -53 26.5 -95 t68.5 -67t120 -25q109 0 181.5 68t95.5 186l116 605q4 22 4 49q0 14 -1 29q-3 46 -25.5 89t-70.5 73t-132 30q-70 0 -117 -27.5t-78.5 -67.5t-48 -87.5t-24.5 -85.5l-107 -564q-9 -43 -9 -83q0 -14 1 -27zM385 1569l338 256h102l224 -252l-72 -68l-225 164l-312 -168z" />
<glyph unicode="&#xd5;" horiz-adv-x="1017" d="M96 273q-5 36 -5 73q0 49 9 100l111 566q14 72 44 147.5t84 137t135 100.5t196 39q111 0 186.5 -39t119.5 -100.5t58 -138.5q7 -38 7 -77t-7 -77l-104 -588q-39 -207 -153.5 -317.5t-301.5 -110.5q-117 0 -196.5 37.5t-125 101t-57.5 146.5zM262 332q4 -53 26.5 -95 t68.5 -67t120 -25q109 0 181.5 68t95.5 186l116 605q4 22 4 49q0 14 -1 29q-3 46 -25.5 89t-70.5 73t-132 30q-70 0 -117 -27.5t-78.5 -67.5t-48 -87.5t-24.5 -85.5l-107 -564q-9 -43 -9 -83q0 -14 1 -27zM412 1583q47 80 106.5 123t118.5 43q33 0 64.5 -13.5t62.5 -28.5 l59 -29q29 -13 56 -13q29 0 57.5 18.5t64.5 65.5l89 -57q-49 -94 -108.5 -131t-113.5 -37q-35 0 -66.5 12t-62.5 28l-59 28q-29 13 -55 14q-31 0 -56.5 -21.5t-64.5 -62.5z" />
<glyph unicode="&#xd6;" horiz-adv-x="1017" d="M96 273q-5 36 -5 73q0 49 9 100l111 566q14 72 44 147.5t84 137t135 100.5t196 39q111 0 186.5 -39t119.5 -100.5t58 -138.5q7 -38 7 -77t-7 -77l-104 -588q-39 -207 -153.5 -317.5t-301.5 -110.5q-117 0 -196.5 37.5t-125 101t-57.5 146.5zM262 332q4 -53 26.5 -95 t68.5 -67t120 -25q109 0 181.5 68t95.5 186l116 605q4 22 4 49q0 14 -1 29q-3 46 -25.5 89t-70.5 73t-132 30q-70 0 -117 -27.5t-78.5 -67.5t-48 -87.5t-24.5 -85.5l-107 -564q-9 -43 -9 -83q0 -14 1 -27zM477 1532l33 172h160l-33 -172h-160zM819 1532l33 172h160l-33 -172 h-160z" />
<glyph unicode="&#xd7;" horiz-adv-x="991" d="M63 250l369 303l-237 301l98 78l237 -301l369 303l76 -100l-367 -302l242 -311l-98 -78l-244 310l-369 -303z" />
<glyph unicode="&#xd8;" horiz-adv-x="1017" d="M55 37l80 117q-35 61 -43 136q-3 25 -3 50q0 51 11 106l111 566q14 72 44 147.5t84 137t135 100.5t196 39q96 0 165.5 -30t114.5 -79l78 111l74 -52l-96 -139q27 -55 32 -118q2 -23 3 -47q0 -39 -7 -78l-104 -588q-39 -207 -153.5 -317.5t-301.5 -110.5 q-96 0 -166.5 24.5t-118.5 69.5l-67 -96zM262 334l584 842q-23 41 -71 69.5t-130 28.5q-70 0 -117 -27.5t-78.5 -67.5t-48 -87.5t-24.5 -85.5l-107 -564q-9 -38 -9 -80q0 -14 1 -28zM293 227q23 -37 68 -59.5t116 -22.5q109 0 181.5 68t95.5 186l116 605q2 12 4 26 q1 7 1.5 15t-1.5 16z" />
<glyph unicode="&#xd9;" horiz-adv-x="1050" d="M114 271q-2 27 -3 55q0 55 10 112l46 243l51 266l49 258l42 220h168l-43 -220l-51 -266l-52 -270l-44 -233q-10 -49 -10.5 -99t18 -90t58.5 -64.5t108 -24.5q80 0 135 27.5t92 74.5t58.5 109.5t33.5 130.5l181 925h169l-92 -471l-90 -469q-18 -106 -55 -197t-95.5 -158 t-141.5 -104.5t-195 -37.5q-121 0 -193.5 37.5t-109.5 101t-44 144.5zM453 1686l82 124l321 -233l-51 -82z" />
<glyph unicode="&#xda;" horiz-adv-x="1050" d="M114 271q-2 27 -3 55q0 55 10 112l46 243l51 266l49 258l42 220h168l-43 -220l-51 -266l-52 -270l-44 -233q-10 -49 -10.5 -99t18 -90t58.5 -64.5t108 -24.5q80 0 135 27.5t92 74.5t58.5 109.5t33.5 130.5l181 925h169l-92 -471l-90 -469q-18 -106 -55 -197t-95.5 -158 t-141.5 -104.5t-195 -37.5q-121 0 -193.5 37.5t-109.5 101t-44 144.5zM631 1569l172 121l172 120l86 -120l-189 -101l-190 -100z" />
<glyph unicode="&#xdb;" horiz-adv-x="1050" d="M114 271q-2 27 -3 55q0 55 10 112l46 243l51 266l49 258l42 220h168l-43 -220l-51 -266l-52 -270l-44 -233q-10 -49 -10.5 -99t18 -90t58.5 -64.5t108 -24.5q80 0 135 27.5t92 74.5t58.5 109.5t33.5 130.5l181 925h169l-92 -471l-90 -469q-18 -106 -55 -197t-95.5 -158 t-141.5 -104.5t-195 -37.5q-121 0 -193.5 37.5t-109.5 101t-44 144.5zM414 1569l338 256h102l223 -252l-71 -68l-226 164l-311 -168z" />
<glyph unicode="&#xdc;" horiz-adv-x="1050" d="M114 271q-2 27 -3 55q0 55 10 112l46 243l51 266l49 258l42 220h168l-43 -220l-51 -266l-52 -270l-44 -233q-10 -49 -10.5 -99t18 -90t58.5 -64.5t108 -24.5q80 0 135 27.5t92 74.5t58.5 109.5t33.5 130.5l181 925h169l-92 -471l-90 -469q-18 -106 -55 -197t-95.5 -158 t-141.5 -104.5t-195 -37.5q-121 0 -193.5 37.5t-109.5 101t-44 144.5zM477 1532l33 172h160l-33 -172h-160zM819 1532l33 172h160l-33 -172h-160z" />
<glyph unicode="&#xdd;" horiz-adv-x="894" d="M209 1425h166l98 -481q8 -29 17.5 -73l17.5 -78l10 -2l148 251l111 193l112 190h182l-510 -829l-117 -596h-163l116 596l-94 415zM524 1569l172 121l172 120l86 -120l-188 -101l-191 -100z" />
<glyph unicode="&#xde;" horiz-adv-x="991" d="M49 0l275 1421h170l-25 -133q-12 -68 -27 -133h238q162 0 249 -82t87 -231q0 -92 -23.5 -187.5t-81 -174.5t-151.5 -128t-238 -49h-243l-58 -303h-172zM309 461h234q80 0 136 30.5t92 80t52.5 109.5t16.5 120q0 80 -46 137t-151 57h-229z" />
<glyph unicode="&#xdf;" horiz-adv-x="903" d="M25 0l211 1087q16 88 44.5 160t72.5 124t107.5 81t149.5 29q164 0 238 -83t74 -222q0 -115 -49.5 -196t-143.5 -122q66 -29 89.5 -83t23.5 -124q0 -45 -7.5 -94t-13.5 -98q-12 -92 -37.5 -177t-72.5 -149.5t-120 -103.5t-181 -39h-76l26 141h27q74 0 122 32t76.5 83 t45 117.5t26.5 136.5q6 39 10 87q1 12 0 23q0 35 -7 68q-9 43 -34.5 71.5t-78.5 28.5h-49l28 144h39q53 0 89 24.5t58.5 61t32 81t9.5 82.5q0 72 -38 116t-118 44q-49 0 -83 -20.5t-56.5 -54t-35.5 -75.5t-22 -85l-215 -1096h-161z" />
<glyph unicode="&#xe0;" horiz-adv-x="915" d="M74 291q0 55 8 117.5t18 115.5q20 102 51 193.5t78 159t115 107.5t160 40q68 0 125 -27.5t88 -81.5q2 0 2 1.5t2 1.5l20 96h160l-196 -1014h-162l18 94q-2 0 -3 1t-3 1q-51 -57 -101.5 -82.5t-134.5 -25.5q-125 0 -185 82t-60 221zM244 326q0 -35 6 -67t22.5 -56.5 t44 -38.5t72.5 -14q72 0 120 48t71 105q18 47 34.5 101.5t27.5 106.5t18.5 101.5t7.5 87.5q0 76 -36 119t-110 43q-49 0 -91 -21.5t-75 -72.5q-25 -37 -46 -104.5t-38 -141.5q-12 -59 -20 -109t-8 -87zM401 1477l138 57l147 -369l-88 -39z" />
<glyph unicode="&#xe1;" horiz-adv-x="915" d="M74 291q0 55 8 117.5t18 115.5q20 102 51 193.5t78 159t115 107.5t160 40q68 0 125 -27.5t88 -81.5q2 0 2 1.5t2 1.5l20 96h160l-196 -1014h-162l18 94q-2 0 -3 1t-3 1q-51 -57 -101.5 -82.5t-134.5 -25.5q-125 0 -185 82t-60 221zM244 326q0 -35 6 -67t22.5 -56.5 t44 -38.5t72.5 -14q72 0 120 48t71 105q18 47 34.5 101.5t27.5 106.5t18.5 101.5t7.5 87.5q0 76 -36 119t-110 43q-49 0 -91 -21.5t-75 -72.5q-25 -37 -46 -104.5t-38 -141.5q-12 -59 -20 -109t-8 -87zM498 1171l213 355l145 -51l-266 -342z" />
<glyph unicode="&#xe2;" horiz-adv-x="915" d="M74 291q0 55 8 117.5t18 115.5q20 102 51 193.5t78 159t115 107.5t160 40q68 0 125 -27.5t88 -81.5q2 0 2 1.5t2 1.5l20 96h160l-196 -1014h-162l18 94q-2 0 -3 1t-3 1q-51 -57 -101.5 -82.5t-134.5 -25.5q-125 0 -185 82t-60 221zM244 326q0 -35 6 -67t22.5 -56.5 t44 -38.5t72.5 -14q72 0 120 48t71 105q18 47 34.5 101.5t27.5 106.5t18.5 101.5t7.5 87.5q0 76 -36 119t-110 43q-49 0 -91 -21.5t-75 -72.5q-25 -37 -46 -104.5t-38 -141.5q-12 -59 -20 -109t-8 -87zM276 1198l345 299h102l217 -295l-88 -69l-201 210l-309 -213z" />
<glyph unicode="&#xe3;" horiz-adv-x="915" d="M74 291q0 55 8 117.5t18 115.5q20 102 51 193.5t78 159t115 107.5t160 40q68 0 125 -27.5t88 -81.5q2 0 2 1.5t2 1.5l20 96h160l-196 -1014h-162l18 94q-2 0 -3 1t-3 1q-51 -57 -101.5 -82.5t-134.5 -25.5q-125 0 -185 82t-60 221zM244 326q0 -35 6 -67t22.5 -56.5 t44 -38.5t72.5 -14q72 0 120 48t71 105q18 47 34.5 101.5t27.5 106.5t18.5 101.5t7.5 87.5q0 76 -36 119t-110 43q-49 0 -91 -21.5t-75 -72.5q-25 -37 -46 -104.5t-38 -141.5q-12 -59 -20 -109t-8 -87zM301 1245q47 80 106.5 123t118.5 43q33 0 65 -13.5t62 -28.5l60 -29 q29 -13 55 -13q29 0 57.5 18.5t65.5 65.5l88 -57q-49 -94 -108.5 -131t-112.5 -37q-35 0 -67 12t-62 28l-60 28q-29 13 -55 14q-31 0 -56.5 -21.5t-64.5 -62.5z" />
<glyph unicode="&#xe4;" horiz-adv-x="915" d="M74 291q0 55 8 117.5t18 115.5q20 102 51 193.5t78 159t115 107.5t160 40q68 0 125 -27.5t88 -81.5q2 0 2 1.5t2 1.5l20 96h160l-196 -1014h-162l18 94q-2 0 -3 1t-3 1q-51 -57 -101.5 -82.5t-134.5 -25.5q-125 0 -185 82t-60 221zM244 326q0 -35 6 -67t22.5 -56.5 t44 -38.5t72.5 -14q72 0 120 48t71 105q18 47 34.5 101.5t27.5 106.5t18.5 101.5t7.5 87.5q0 76 -36 119t-110 43q-49 0 -91 -21.5t-75 -72.5q-25 -37 -46 -104.5t-38 -141.5q-12 -59 -20 -109t-8 -87zM354 1214l35 172h158l-33 -172h-160zM692 1214l35 172h158l-33 -172 h-160z" />
<glyph unicode="&#xe5;" horiz-adv-x="915" d="M74 291q0 55 8 117.5t18 115.5q20 102 51 193.5t78 159t115 107.5t160 40q68 0 125 -27.5t88 -81.5q2 0 2 1.5t2 1.5l20 96h160l-196 -1014h-162l18 94q-2 0 -3 1t-3 1q-51 -57 -101.5 -82.5t-134.5 -25.5q-125 0 -185 82t-60 221zM244 326q0 -35 6 -67t22.5 -56.5 t44 -38.5t72.5 -14q72 0 120 48t71 105q18 47 34.5 101.5t27.5 106.5t18.5 101.5t7.5 87.5q0 76 -36 119t-110 43q-49 0 -91 -21.5t-75 -72.5q-25 -37 -46 -104.5t-38 -141.5q-12 -59 -20 -109t-8 -87zM438 1272q0 45 18.5 86t50.5 72.5t74 50t91 18.5q72 0 117 -45t45 -113 q0 -49 -20.5 -91t-53.5 -72.5t-75 -47t-85 -16.5q-72 0 -117 45t-45 113zM528 1286q0 -39 23.5 -62.5t62.5 -23.5q49 0 88 37t39 90q0 35 -24.5 59.5t-63.5 24.5q-49 0 -87 -38t-38 -87z" />
<glyph unicode="&#xe6;" horiz-adv-x="1388" d="M43 229q0 174 111.5 271.5t306.5 97.5q43 -2 84 -6t100 -12l25 143q3 18 3 33q0 48 -29 77q-38 38 -128 37q-70 0 -124 -23.5t-81 -72.5l-121 78q47 82 138.5 128t206.5 46q37 0 77.5 -6t78.5 -19.5t69 -35t49 -50.5q49 47 116.5 79t151.5 32q145 0 223 -68.5t78 -185.5 q0 -158 -112.5 -255t-345.5 -103q-31 0 -65 1t-69 3l-8 -56q-4 -27 -4 -49q0 -92 36 -133t120 -41q61 0 120.5 35t88.5 86l123 -74q-51 -92 -140.5 -145t-214.5 -53q-106 0 -169.5 39t-92.5 112q-59 -86 -153.5 -118.5t-192.5 -32.5q-68 0 -117 19.5t-79.5 52t-45 76.5 t-14.5 93zM203 264q0 -55 38 -88t117 -33q82 0 150 47.5t84 126.5l24 129l-84 11q-35 4 -71 6q-51 0 -98.5 -11.5t-82 -35t-56 -61.5t-21.5 -91zM813 561q27 -2 51.5 -3t48.5 -1q154 0 226.5 50t72.5 143q0 53 -40.5 85.5t-110.5 32.5q-59 0 -99 -20.5t-69 -60t-47.5 -97 t-32.5 -129.5z" />
<glyph unicode="&#xe7;" horiz-adv-x="780" d="M59 303q0 59 8.5 118.5t18.5 119.5q18 96 52 184t89.5 154.5t133 106.5t182.5 40q109 0 186.5 -55.5t93.5 -159.5l-151 -74q-10 68 -49 100.5t-99 32.5q-63 0 -109 -28.5t-79 -76.5t-54.5 -110.5t-33.5 -128.5q-10 -47 -16.5 -95t-6.5 -91q0 -102 37 -149.5t129 -47.5 q59 0 111.5 35t79.5 94l139 -77q-51 -88 -139 -146.5t-211 -60.5l-39 -84q45 -4 75.5 -17.5t48 -33t24.5 -42t7 -44.5q0 -31 -12 -65t-39.5 -61.5t-70.5 -46t-103 -18.5h-30q-19 0 -44.5 3t-52 9t-49.5 19l41 86q35 -18 70.5 -23.5t62.5 -5.5q41 0 74 21.5t33 62.5 q0 76 -95 76h-20l-31 31l66 139q-70 12 -114 43t-69.5 73t-35 92t-9.5 101z" />
<glyph unicode="&#xe8;" horiz-adv-x="847" d="M68 324q0 106 21.5 230t74.5 228.5t141 174t223 69.5q141 0 221 -66.5t80 -183.5q0 -82 -29.5 -148.5t-91 -114.5t-155.5 -73.5t-223 -25.5q-23 0 -50.5 1t-52.5 3q-6 -43 -6 -86q0 -37 7.5 -72t23.5 -60.5t46 -41t75 -15.5q27 0 57.5 9.5t60 25t55 37t42.5 45.5l135 -74 q-59 -88 -149.5 -143t-217.5 -55q-84 0 -140 27.5t-89 73.5t-46 107.5t-13 127.5zM254 561q23 -2 47.5 -3t46.5 -1q174 0 247 56.5t73 140.5q0 53 -41 86.5t-113 33.5q-106 0 -168.5 -84t-91.5 -229zM348 1477l137 57l148 -369l-88 -39z" />
<glyph unicode="&#xe9;" horiz-adv-x="847" d="M68 324q0 106 21.5 230t74.5 228.5t141 174t223 69.5q141 0 221 -66.5t80 -183.5q0 -82 -29.5 -148.5t-91 -114.5t-155.5 -73.5t-223 -25.5q-23 0 -50.5 1t-52.5 3q-6 -43 -6 -86q0 -37 7.5 -72t23.5 -60.5t46 -41t75 -15.5q27 0 57.5 9.5t60 25t55 37t42.5 45.5l135 -74 q-59 -88 -149.5 -143t-217.5 -55q-84 0 -140 27.5t-89 73.5t-46 107.5t-13 127.5zM254 561q23 -2 47.5 -3t46.5 -1q174 0 247 56.5t73 140.5q0 53 -41 86.5t-113 33.5q-106 0 -168.5 -84t-91.5 -229zM469 1171l213 355l145 -51l-266 -342z" />
<glyph unicode="&#xea;" horiz-adv-x="847" d="M68 324q0 106 21.5 230t74.5 228.5t141 174t223 69.5q141 0 221 -66.5t80 -183.5q0 -82 -29.5 -148.5t-91 -114.5t-155.5 -73.5t-223 -25.5q-23 0 -50.5 1t-52.5 3q-6 -43 -6 -86q0 -37 7.5 -72t23.5 -60.5t46 -41t75 -15.5q27 0 57.5 9.5t60 25t55 37t42.5 45.5l135 -74 q-59 -88 -149.5 -143t-217.5 -55q-84 0 -140 27.5t-89 73.5t-46 107.5t-13 127.5zM240 1198l344 299h102l217 -295l-88 -69l-201 210l-309 -213zM254 561q23 -2 47.5 -3t46.5 -1q174 0 247 56.5t73 140.5q0 53 -41 86.5t-113 33.5q-106 0 -168.5 -84t-91.5 -229z" />
<glyph unicode="&#xeb;" horiz-adv-x="847" d="M68 324q0 106 21.5 230t74.5 228.5t141 174t223 69.5q141 0 221 -66.5t80 -183.5q0 -82 -29.5 -148.5t-91 -114.5t-155.5 -73.5t-223 -25.5q-23 0 -50.5 1t-52.5 3q-6 -43 -6 -86q0 -37 7.5 -72t23.5 -60.5t46 -41t75 -15.5q27 0 57.5 9.5t60 25t55 37t42.5 45.5l135 -74 q-59 -88 -149.5 -143t-217.5 -55q-84 0 -140 27.5t-89 73.5t-46 107.5t-13 127.5zM254 561q23 -2 47.5 -3t46.5 -1q174 0 247 56.5t73 140.5q0 53 -41 86.5t-113 33.5q-106 0 -168.5 -84t-91.5 -229zM336 1214l35 172h157l-32 -172h-160zM674 1214l35 172h157l-32 -172h-160 z" />
<glyph unicode="&#xec;" horiz-adv-x="399" d="M76 0l196 1014h164l-196 -1014h-164zM141 1477l138 57l147 -369l-88 -39z" />
<glyph unicode="&#xed;" horiz-adv-x="399" d="M35 0l196 1014h164l-196 -1014h-164zM274 1171l213 355l146 -51l-266 -342z" />
<glyph unicode="&#xee;" horiz-adv-x="524" d="M84 1198l344 299h102l218 -295l-89 -69l-200 210l-309 -213zM106 0l197 1014h164l-197 -1014h-164z" />
<glyph unicode="&#xef;" horiz-adv-x="471" d="M78 0l196 1014h164l-196 -1014h-164zM139 1214l35 172h158l-33 -172h-160zM477 1214l35 172h158l-33 -172h-160z" />
<glyph unicode="&#xf0;" horiz-adv-x="903" d="M72 270q0 59 6 123t16 119q16 106 53 196.5t80 145.5q51 66 121 95.5t150 29.5q31 0 63.5 -8t63 -23.5t56.5 -37t40 -50.5h6q8 37 10 71t2 68q0 43 -5 83t-17 75l-144 -92l-41 65l152 99q-37 57 -95.5 87t-131.5 38q12 35 22 67.5t23 67.5q68 -6 119 -22.5t90 -40 t66.5 -51t45.5 -56.5l170 108l41 -67l-176 -113q33 -84 33 -213q0 -104 -17.5 -265t-64.5 -345q-25 -98 -61.5 -179t-89 -138.5t-123 -88t-166.5 -30.5q-80 0 -136.5 23.5t-92.5 62.5t-52 90t-16 106zM227 313q0 -84 39 -130t125 -46q57 0 98 23.5t72 66.5q18 27 36.5 76 t34 108.5t26 126t10.5 126.5q0 82 -46.5 124.5t-115.5 42.5q-96 0 -154 -67q-23 -27 -45 -78t-39.5 -113.5t-29 -131.5t-11.5 -128z" />
<glyph unicode="&#xf1;" d="M20 0l197 1014h164l-23 -113h7q57 66 123.5 94.5t134.5 28.5q57 0 103 -19.5t78 -54.5t46 -85q9 -32 9 -69q0 -21 -3 -44q0 -10 -12.5 -80l-32.5 -175l-46 -236l-50 -261h-166l46 231l42 214l31 162q12 65 12 73q4 25 4 47q0 11 -1 23q-3 33 -19.5 58.5t-48 39.5 t-83.5 14q-88 0 -146 -61.5t-77 -153.5l-127 -647h-162zM256 1245q47 80 106.5 123t118.5 43q33 0 65 -13.5t62 -28.5l60 -29q29 -13 55 -13q29 0 57.5 18.5t65.5 65.5l88 -57q-49 -94 -108.5 -131t-112.5 -37q-35 0 -67 12t-62 28l-60 28q-29 13 -55 14q-31 0 -56.5 -21.5 t-64.5 -62.5z" />
<glyph unicode="&#xf2;" horiz-adv-x="878" d="M74 285q0 80 10 153.5t25 139.5q20 96 53 178t76 135q111 133 290 133q80 0 138.5 -24.5t96.5 -66.5t56.5 -98.5t18.5 -119.5q0 -61 -11.5 -133t-23.5 -133q-23 -111 -55.5 -196t-82 -144.5t-120 -90t-168.5 -30.5q-84 0 -141.5 24.5t-93.5 66.5t-52 95.5t-16 110.5z M229 336q-1 -11 0 -21q0 -26 3 -52q5 -36 22.5 -63.5t50.5 -45t86 -17.5q86 0 129 44t72 116q18 45 33.5 99.5t27 109.5t17.5 106.5t6 92.5q0 86 -44 129t-116 43q-86 0 -141 -62q-33 -35 -59.5 -94t-47.5 -135q-16 -59 -25.5 -128t-13.5 -122zM377 1477l137 57l148 -369 l-89 -39z" />
<glyph unicode="&#xf3;" horiz-adv-x="878" d="M74 285q0 80 10 153.5t25 139.5q20 96 53 178t76 135q111 133 290 133q80 0 138.5 -24.5t96.5 -66.5t56.5 -98.5t18.5 -119.5q0 -61 -11.5 -133t-23.5 -133q-23 -111 -55.5 -196t-82 -144.5t-120 -90t-168.5 -30.5q-84 0 -141.5 24.5t-93.5 66.5t-52 95.5t-16 110.5z M229 336q-1 -11 0 -21q0 -26 3 -52q5 -36 22.5 -63.5t50.5 -45t86 -17.5q86 0 129 44t72 116q18 45 33.5 99.5t27 109.5t17.5 106.5t6 92.5q0 86 -44 129t-116 43q-86 0 -141 -62q-33 -35 -59.5 -94t-47.5 -135q-16 -59 -25.5 -128t-13.5 -122zM522 1171l213 355l146 -51 l-267 -342z" />
<glyph unicode="&#xf4;" horiz-adv-x="878" d="M74 285q0 80 10 153.5t25 139.5q20 96 53 178t76 135q111 133 290 133q80 0 138.5 -24.5t96.5 -66.5t56.5 -98.5t18.5 -119.5q0 -61 -11.5 -133t-23.5 -133q-23 -111 -55.5 -196t-82 -144.5t-120 -90t-168.5 -30.5q-84 0 -141.5 24.5t-93.5 66.5t-52 95.5t-16 110.5z M229 336q-1 -11 0 -21q0 -26 3 -52q5 -36 22.5 -63.5t50.5 -45t86 -17.5q86 0 129 44t72 116q18 45 33.5 99.5t27 109.5t17.5 106.5t6 92.5q0 86 -44 129t-116 43q-86 0 -141 -62q-33 -35 -59.5 -94t-47.5 -135q-16 -59 -25.5 -128t-13.5 -122zM260 1198l344 299h103 l217 -295l-88 -69l-201 210l-309 -213z" />
<glyph unicode="&#xf5;" horiz-adv-x="878" d="M74 285q0 80 10 153.5t25 139.5q20 96 53 178t76 135q111 133 290 133q80 0 138.5 -24.5t96.5 -66.5t56.5 -98.5t18.5 -119.5q0 -61 -11.5 -133t-23.5 -133q-23 -111 -55.5 -196t-82 -144.5t-120 -90t-168.5 -30.5q-84 0 -141.5 24.5t-93.5 66.5t-52 95.5t-16 110.5z M229 336q-1 -11 0 -21q0 -26 3 -52q5 -36 22.5 -63.5t50.5 -45t86 -17.5q86 0 129 44t72 116q18 45 33.5 99.5t27 109.5t17.5 106.5t6 92.5q0 86 -44 129t-116 43q-86 0 -141 -62q-33 -35 -59.5 -94t-47.5 -135q-16 -59 -25.5 -128t-13.5 -122zM240 1245q47 80 106.5 123 t118.5 43q33 0 64.5 -13.5t62.5 -28.5l59 -29q29 -13 56 -13q29 0 57.5 18.5t64.5 65.5l89 -57q-49 -94 -108.5 -131t-113.5 -37q-35 0 -66.5 12t-62.5 28l-59 28q-29 13 -55 14q-31 0 -56.5 -21.5t-64.5 -62.5z" />
<glyph unicode="&#xf6;" horiz-adv-x="878" d="M74 285q0 80 10 153.5t25 139.5q20 96 53 178t76 135q111 133 290 133q80 0 138.5 -24.5t96.5 -66.5t56.5 -98.5t18.5 -119.5q0 -61 -11.5 -133t-23.5 -133q-23 -111 -55.5 -196t-82 -144.5t-120 -90t-168.5 -30.5q-84 0 -141.5 24.5t-93.5 66.5t-52 95.5t-16 110.5z M229 336q-1 -11 0 -21q0 -26 3 -52q5 -36 22.5 -63.5t50.5 -45t86 -17.5q86 0 129 44t72 116q18 45 33.5 99.5t27 109.5t17.5 106.5t6 92.5q0 86 -44 129t-116 43q-86 0 -141 -62q-33 -35 -59.5 -94t-47.5 -135q-16 -59 -25.5 -128t-13.5 -122zM338 1214l35 172h157 l-32 -172h-160zM676 1214l35 172h157l-32 -172h-160z" />
<glyph unicode="&#xf7;" d="M59 539l27 127h832l-25 -127h-834zM309 233q0 27 11.5 51.5t30 43t43 29t50.5 10.5q41 0 67 -26t26 -65q0 -27 -12.5 -51t-31 -42.5t-43 -29t-49.5 -10.5q-41 0 -66.5 25.5t-25.5 64.5zM442 928q0 53 42 93t96 40q41 0 66.5 -25.5t25.5 -66.5q0 -53 -43 -93t-94 -40 q-41 0 -67 26.5t-26 65.5z" />
<glyph unicode="&#xf8;" horiz-adv-x="878" d="M43 6l76 103q-25 37 -35 83t-10 93q0 80 10 153.5t25 139.5q20 96 53 178t76 135q111 133 290 133q72 0 124.5 -18.5t90.5 -53.5l72 99l70 -47l-88 -119q23 -37 32 -80t9 -90q0 -61 -11.5 -133t-23.5 -133q-23 -111 -55.5 -196t-82 -144.5t-120 -90t-168.5 -30.5 q-68 0 -118 15t-85 44l-65 -88zM229 336q-2 -17 -1 -33q0 -23 3 -41l412 557q-43 57 -127 58q-86 0 -141 -62q-33 -35 -59.5 -94t-47.5 -135q-16 -59 -25.5 -128t-13.5 -122zM270 178q37 -41 121 -41q86 0 129 44t72 116q18 45 33.5 99.5t27 109.5t17.5 106.5t6 92.5v16z " />
<glyph unicode="&#xf9;" horiz-adv-x="909" d="M78 260q0 10 12 80t33 175l46 236l50 263h164l-45 -233l-41 -215l-31 -162q-12 -65 -12 -72q-5 -28 -5 -53q0 -8 1 -17q2 -33 15.5 -58.5t43 -41t82.5 -15.5q43 0 82 20.5t70.5 54.5t53 78t32.5 91l123 623h161l-196 -1014h-164l22 109h-6q-57 -66 -123.5 -93.5 t-132.5 -27.5q-127 0 -189 73q-49 58 -50 149q1 24 4 50zM369 1477l137 57l147 -369l-88 -39z" />
<glyph unicode="&#xfa;" horiz-adv-x="909" d="M78 260q0 10 12 80t33 175l46 236l50 263h164l-45 -233l-41 -215l-31 -162q-12 -65 -12 -72q-5 -28 -5 -53q0 -8 1 -17q2 -33 15.5 -58.5t43 -41t82.5 -15.5q43 0 82 20.5t70.5 54.5t53 78t32.5 91l123 623h161l-196 -1014h-164l22 109h-6q-57 -66 -123.5 -93.5 t-132.5 -27.5q-127 0 -189 73q-49 58 -50 149q1 24 4 50zM504 1171l213 355l145 -51l-266 -342z" />
<glyph unicode="&#xfb;" horiz-adv-x="909" d="M78 260q0 10 12 80t33 175l46 236l50 263h164l-45 -233l-41 -215l-31 -162q-12 -65 -12 -72q-5 -28 -5 -53q0 -8 1 -17q2 -33 15.5 -58.5t43 -41t82.5 -15.5q43 0 82 20.5t70.5 54.5t53 78t32.5 91l123 623h161l-196 -1014h-164l22 109h-6q-57 -66 -123.5 -93.5 t-132.5 -27.5q-127 0 -189 73q-49 58 -50 149q1 24 4 50zM258 1198l344 299h103l217 -295l-88 -69l-201 210l-309 -213z" />
<glyph unicode="&#xfc;" horiz-adv-x="909" d="M78 260q0 10 12 80t33 175l46 236l50 263h164l-45 -233l-41 -215l-31 -162q-12 -65 -12 -72q-5 -28 -5 -53q0 -8 1 -17q2 -33 15.5 -58.5t43 -41t82.5 -15.5q43 0 82 20.5t70.5 54.5t53 78t32.5 91l123 623h161l-196 -1014h-164l22 109h-6q-57 -66 -123.5 -93.5 t-132.5 -27.5q-127 0 -189 73q-49 58 -50 149q1 24 4 50zM352 1214l35 172h158l-33 -172h-160zM690 1214l35 172h158l-33 -172h-160z" />
<glyph unicode="&#xfd;" horiz-adv-x="768" d="M-133 -268q106 14 191 68.5t147 156.5l-115 1057h170l37 -455q8 -88 13 -202q3 -63 3 -122q0 -47 -2 -92h6q49 90 96.5 198t91.5 221l85 230l76 222h170l-118 -336q-56 -154 -113.5 -290t-117 -258t-129.5 -236q-92 -150 -212 -230q-117 -78 -265 -78h-8zM414 1171 l213 355l145 -51l-266 -342z" />
<glyph unicode="&#xfe;" horiz-adv-x="886" d="M-63 -403l51 265l60 312l66 336l65 336l62 312l52 267h162l-99 -505q2 0 2 -1.5t2 -1.5q51 51 109.5 80t140.5 29q106 0 170 -65.5t64 -198.5q0 -68 -8.5 -146.5t-20.5 -144.5q-18 -100 -47 -187t-76 -152.5t-116.5 -103.5t-169.5 -38q-61 0 -117 27.5t-90 80.5 q-2 0 -2 -1t-2 -1l-48 -250l-49 -249h-161zM252 311q0 -72 36 -115.5t105 -43.5q49 0 92 19t76 67q29 41 51.5 116.5t38.5 159.5q10 47 14.5 89t6.5 77q0 37 -5.5 70.5t-21.5 59.5t-45 40t-76 14q-78 0 -128 -52t-70 -114q-25 -78 -43.5 -157.5t-26.5 -153.5q-2 -18 -3 -38 t-1 -38z" />
<glyph unicode="&#xff;" horiz-adv-x="768" d="M-133 -268q106 14 191 68.5t147 156.5l-115 1057h170l37 -455q8 -88 13 -202q3 -63 3 -122q0 -47 -2 -92h6q49 90 96.5 198t91.5 221l85 230l76 222h170l-118 -336q-56 -154 -113.5 -290t-117 -258t-129.5 -236q-92 -150 -212 -230q-117 -78 -265 -78h-8zM225 1214 l35 172h158l-33 -172h-160zM563 1214l35 172h158l-33 -172h-160z" />
<glyph unicode="&#x152;" horiz-adv-x="1427" d="M104 239q-7 37 -7 76.5t7 81.5l107 609q16 90 54 168.5t95.5 138t135 93.5t176.5 34q78 0 149 -17q190 0 366.5 1t366.5 1l-30 -157h-553l-45 -236l-45 -233h495l-30 -154h-496l-47 -245l-49 -244h577q-6 -39 -13 -78t-15 -78h-719q-59 -12 -129 -12q-102 0 -176 32.5 t-117.5 88t-57.5 130.5zM266 350v-12q0 -54 17 -95q18 -46 63 -73t129 -27q31 0 59.5 5.5t53.5 17.5l211 1085q-49 33 -125 33t-128 -25.5t-88 -71.5t-57.5 -108.5t-35.5 -136.5l-84 -461q-13 -70 -15 -131z" />
<glyph unicode="&#x153;" horiz-adv-x="1411" d="M70 285q0 80 10 153.5t24 139.5q20 96 53 178t76 135q111 133 291 133q104 0 170 -39t101 -104q53 66 128.5 105.5t178.5 39.5q141 0 221 -66.5t80 -183.5q0 -82 -30 -148.5t-91 -114.5t-155.5 -73.5t-223.5 -25.5q-23 0 -50.5 1t-51.5 3q-6 -49 -6 -97.5t14 -88 t46 -64.5t91 -25q27 0 57.5 9.5t60.5 25t55.5 37t41.5 45.5l135 -74q-59 -88 -149 -143t-217 -55q-104 0 -163.5 39t-88.5 104q-51 -70 -124 -106.5t-181 -36.5q-84 0 -141.5 24.5t-93.5 66.5t-52 95.5t-16 110.5zM225 336q-1 -11 0 -21q0 -26 3 -52q5 -36 22.5 -63.5 t50.5 -45t86 -17.5q86 0 129 44t72 116q18 45 33.5 99.5t26.5 109.5t17.5 106.5t6.5 92.5q0 86 -44 129t-116 43q-86 0 -141 -62q-33 -35 -59.5 -94t-47.5 -135q-16 -59 -25.5 -128t-13.5 -122zM827 561q23 -2 47.5 -3t47.5 -1q174 0 246.5 56.5t72.5 140.5q0 53 -41 86.5 t-113 33.5q-106 0 -168.5 -84t-91.5 -229z" />
<glyph unicode="&#x178;" horiz-adv-x="894" d="M209 1425h166l98 -481q8 -29 17.5 -73l17.5 -78l10 -2l148 251l111 193l112 190h182l-510 -829l-117 -596h-163l116 596l-94 415zM399 1532l33 172h160l-33 -172h-160zM741 1532l33 172h160l-33 -172h-160z" />
<glyph unicode="&#x2c6;" horiz-adv-x="882" d="M268 1198l344 299h103l217 -295l-88 -69l-201 210l-309 -213z" />
<glyph unicode="&#x2dc;" horiz-adv-x="874" d="M281 1245q47 80 106 123t119 43q33 0 64.5 -13.5t62.5 -28.5l59 -29q29 -13 56 -13q29 0 57.5 18.5t64.5 65.5l88 -57q-49 -94 -108 -131t-113 -37q-35 0 -66.5 12t-62.5 28l-59 28q-29 13 -55 14q-31 0 -56.5 -21.5t-64.5 -62.5z" />
<glyph unicode="&#x2013;" horiz-adv-x="1013" d="M49 471l31 156h932l-31 -156h-932z" />
<glyph unicode="&#x2014;" horiz-adv-x="2048" d="M31 471l30 156h1967l-31 -156h-1966z" />
<glyph unicode="&#x2018;" horiz-adv-x="456" d="M244 1030l41 209l151 234h96l-102 -230h51l-43 -213h-194z" />
<glyph unicode="&#x2019;" horiz-adv-x="456" d="M244 1030l102 232h-51l43 213h194l-40 -209l-150 -236h-98z" />
<glyph unicode="&#x201a;" horiz-adv-x="456" d="M-12 -238l102 230h-51l41 213h194l-41 -209l-149 -234h-96z" />
<glyph unicode="&#x201c;" horiz-adv-x="614" d="M193 1030l40 209l150 234h98l-102 -230h51l-43 -213h-194zM459 1030l41 209l151 234h97l-103 -230h51l-43 -213h-194z" />
<glyph unicode="&#x201d;" horiz-adv-x="614" d="M203 1030l104 232h-51l41 213h197l-41 -209l-152 -236h-98zM471 1030l102 232h-51l43 213h195l-41 -209l-152 -236h-96z" />
<glyph unicode="&#x201e;" horiz-adv-x="722" d="M-12 -236l102 230h-51l43 213h194l-40 -209l-152 -234h-96zM254 -236l102 230h-51l43 213h195l-41 -209l-152 -234h-96z" />
<glyph unicode="&#x2022;" horiz-adv-x="837" d="M160 549q0 53 20.5 101t56 84t83 56.5t102.5 20.5t103 -20.5t84 -56.5t56.5 -84t20.5 -101t-20.5 -101.5t-56.5 -84t-84 -56t-103 -20.5t-102.5 20.5t-83 56t-56 84t-20.5 101.5z" />
<glyph unicode="&#x2026;" horiz-adv-x="1449" d="M57 0l39 207h195l-39 -207h-195zM539 0l39 207h194l-39 -207h-194zM1030 0l39 207h195l-39 -207h-195z" />
<glyph unicode="&#x2039;" horiz-adv-x="571" d="M47 475l315 381h160l-315 -385l166 -377h-158z" />
<glyph unicode="&#x203a;" horiz-adv-x="571" d="M27 94l315 385l-166 377h158l168 -381l-316 -381h-159z" />
<glyph unicode="&#x20ac;" d="M51 547l23 106h78l22 121h-80l23 105h78l20 100q18 90 50 173t86.5 145.5t132 100.5t186.5 38q160 0 241.5 -80t94.5 -209l-168 -53q-4 78 -49.5 132t-126.5 54q-66 0 -113 -25.5t-80 -67.5t-53.5 -94.5t-30.5 -105.5l-20 -108h364l-20 -105h-365l-22 -121h364l-20 -106 h-365l-27 -133q-9 -46 -8 -88v-17q2 -49 21.5 -87t57.5 -59.5t97 -21.5q90 0 153.5 51.5t102.5 139.5l158 -58q-53 -135 -163.5 -210.5t-264.5 -75.5q-102 0 -172 32.5t-108.5 91t-48.5 138.5q-3 27 -3 55q0 56 13 119l22 123h-80z" />
<glyph unicode="&#x2122;" horiz-adv-x="1550" d="M76 1307v118h555v-118h-213v-699h-129v699h-213zM733 606v817h127l227 -508l224 508h125v-817h-129q0 123 -1 246t-1 246q-8 -12 -15.5 -24.5t-13.5 -24.5l-139 -310h-109l-166 361h-2v-494h-127z" />
<glyph unicode="&#xe000;" horiz-adv-x="1014" d="M0 1015h1015v-1015h-1015v1015z" />
<glyph unicode="&#xfb01;" horiz-adv-x="882" d="M6 -307l227 1184h-112l26 137h113l37 184q33 170 125 237.5t221 67.5q104 0 178 -34.5t115 -94.5l-123 -114q-25 37 -69 61.5t-107 24.5q-78 0 -121 -44.5t-57 -113.5l-33 -174h453l-197 -1014h-164l170 877h-289l-229 -1184h-164z" />
<glyph unicode="&#xfb02;" horiz-adv-x="931" d="M8 -307l225 1184h-112l26 137h113l37 184q33 166 123 237.5t227 71.5q41 0 126 -11t190 -52l-230 -1174q-4 -12 -4 -22v-21q0 -37 20.5 -58.5t65.5 -21.5h33l-31 -153h-26q-102 0 -169 40t-67 136q0 39 6 76l213 1077q-29 14 -65.5 20.5t-63.5 6.5q-82 0 -126 -40 t-58 -118l-35 -178h186l-26 -137h-187l-227 -1184h-164z" />
<glyph unicode="&#xfb03;" horiz-adv-x="1341" d="M6 -307l227 1184h-112l29 137h112l31 166q33 164 131 233.5t229 69.5q59 0 113.5 -13.5t91.5 -35.5q53 45 111.5 64.5t134.5 19.5q102 0 176 -34t115 -93l-125 -115q-25 37 -69 61.5t-107 24.5q-78 0 -122 -40t-57 -108l-38 -200h452l-196 -1014h-164l168 877h-287 l-227 -1184h-166l227 1184h-285l-227 -1184h-166zM426 1014h287l37 200q4 20 9 40t13 38q-51 33 -133 33t-125 -39t-55 -108z" />
<glyph unicode="&#xfb04;" horiz-adv-x="1384" d="M6 -307l227 1184h-112l26 137h113l33 164q33 164 133 233.5t238 69.5q121 0 196 -47q53 45 111.5 64.5t128.5 19.5q41 0 126 -11.5t189 -52.5l-89 -455l-60 -315l-39 -203l-23 -119q-8 -43 -12 -61t-6 -31q-4 -12 -4 -22v-21q0 -37 20.5 -58.5t65.5 -21.5h32l-30 -153 h-27q-102 0 -168.5 40t-66.5 136q0 39 6 76l213 1087q-29 14 -66 20.5t-63 6.5q-82 0 -126 -40t-59 -118l-39 -188h187l-27 -137h-186l-227 -1184h-166l229 1184h-285l-229 -1184h-164zM426 1014h285l37 194q4 23 9 42.5t13 37.5q-27 16 -57.5 26.5t-69.5 10.5 q-86 0 -129 -40t-55 -107z" />
</font>
</defs>
</svg>
